<svg id="Layer_1" data-name="Layer 1" xmlns="http://www.w3.org/2000/svg" xmlns:xlink="http://www.w3.org/1999/xlink" viewBox="0 0 589.48 483.72"><defs><style>.cls-1{fill:none;clip-rule:evenodd;}.cls-2{fill:#f8b595;}.cls-2,.cls-8{opacity:0.4;}.cls-11,.cls-2,.cls-9{isolation:isolate;}.cls-3{opacity:0.7;}.cls-13,.cls-4,.cls-49,.cls-9{fill:#f67280;}.cls-5{fill:#8e1c2f;}.cls-47,.cls-6{fill:#bd263e;}.cls-7{fill:#2f0a10;}.cls-11,.cls-9{opacity:0.1;}.cls-10{fill:#3f3d56;}.cls-12{clip-path:url(#clip-path);}.cls-13,.cls-14,.cls-15,.cls-16,.cls-17,.cls-18,.cls-19,.cls-20,.cls-21,.cls-22,.cls-23,.cls-24,.cls-25,.cls-26,.cls-27,.cls-28,.cls-29,.cls-30,.cls-31,.cls-32,.cls-33,.cls-34,.cls-35,.cls-36,.cls-37,.cls-38,.cls-39,.cls-40,.cls-41,.cls-42,.cls-43,.cls-44,.cls-45,.cls-46,.cls-47,.cls-48,.cls-49{fill-rule:evenodd;}.cls-14,.cls-15{fill:#fff;}.cls-14{opacity:0.29;}.cls-16{fill:#fadcc2;}.cls-17{fill:#fceadd;}.cls-18{fill:#be8d76;}.cls-19{fill:#0f1630;}.cls-20{fill:#01020e;}.cls-21{fill:#000618;}.cls-22{fill:#36425e;}.cls-23{fill:#202e4b;}.cls-24{fill:#e8685b;}.cls-25{fill:#f4ad85;}.cls-26{fill:#ef8871;}.cls-27{fill:#be2a34;}.cls-28{fill:#18233d;}.cls-29{fill:#030a1f;}.cls-30{fill:#fbdfcc;}.cls-31{fill:#494c5c;}.cls-32{fill:url(#radial-gradient);}.cls-33{fill:url(#radial-gradient-2);}.cls-34{fill:#350a3d;}.cls-35{fill:#cb6459;}.cls-36{fill:#b24949;}.cls-37{fill:#e6ad83;}.cls-38{fill:#b02539;}.cls-39{fill:#ecd8da;}.cls-40{fill:#df9aa3;}.cls-41{fill:#c73048;}.cls-42{fill:#cf4a60;}.cls-43{fill:#d4a037;}.cls-44{fill:#472055;}.cls-45{fill:#f3ce63;}.cls-46{fill:#f2dbdf;}.cls-48{fill:#542763;}.cls-49{opacity:0.92;}</style><clipPath id="clip-path" transform="translate(-665.71 -298.55)"><path class="cls-1" d="M1111.53,407.7c-16.47-42.74-50-65.27-74.4-59-32.52,8.32-39.07,65.13-39.67,70.83-7.93,76.27,65.47,133,75.91,140.78,4.07-.58,98.22-15.25,121.39-85,11.18-33.65,8.24-87.37-19.65-97.38C1157,371.46,1132,384.66,1111.53,407.7Z"/></clipPath><radialGradient id="radial-gradient" cx="1654.33" cy="-84.71" r="154.37" gradientTransform="matrix(0.62, 0.17, -0.19, 0.67, 56.69, 234.83)" gradientUnits="userSpaceOnUse"><stop offset="0" stop-color="#fff" stop-opacity="0"/><stop offset="0.11" stop-color="#fffefe" stop-opacity="0.01"/><stop offset="0.21" stop-color="#fffafb" stop-opacity="0.06"/><stop offset="0.3" stop-color="#fff3f6" stop-opacity="0.13"/><stop offset="0.38" stop-color="#ffeaf0" stop-opacity="0.22"/><stop offset="0.47" stop-color="#ffdfe7" stop-opacity="0.35"/><stop offset="0.55" stop-color="#ffd0dc" stop-opacity="0.51"/><stop offset="0.63" stop-color="#ffbfd0" stop-opacity="0.69"/><stop offset="0.71" stop-color="#ffacc2" stop-opacity="0.9"/><stop offset="0.73" stop-color="#ffa7be" stop-opacity="0.95"/><stop offset="0.92" stop-color="#ffa6be" stop-opacity="0.96"/><stop offset="0.98" stop-color="#ffa4bc" stop-opacity="0.99"/><stop offset="1" stop-color="#ffa3bb"/></radialGradient><radialGradient id="radial-gradient-2" cx="1654.64" cy="-84.08" r="154.37" gradientTransform="matrix(0.62, 0.17, -0.19, 0.67, 56.69, 234.83)" gradientUnits="userSpaceOnUse"><stop offset="0" stop-color="#fff" stop-opacity="0"/><stop offset="0.22" stop-color="#fff" stop-opacity="0.01"/><stop offset="0.41" stop-color="#fff" stop-opacity="0.06"/><stop offset="0.59" stop-color="#fff" stop-opacity="0.12"/><stop offset="0.73" stop-color="#fff" stop-opacity="0.2"/><stop offset="0.89" stop-color="#fff" stop-opacity="0.19"/><stop offset="0.95" stop-color="#fff" stop-opacity="0.17"/><stop offset="0.99" stop-color="#fff" stop-opacity="0.12"/><stop offset="1" stop-color="#fff" stop-opacity="0.1"/></radialGradient></defs><title>lc big screen</title><path class="cls-2" d="M1240,688.06c-1.5,26.25-21.11,39.91-48.88,52a291,291,0,0,1-36.63,13c-79,22.47-141,34.48-236.52,26.9-28.39-2.25-22-2-69-10-66.18-11.26-139.85-36.15-162.08-99.5-8.16-23.27-12-47.62-10.48-71.3,1.66-25.79,8.95-50.2,17.71-73.61,15.58-41.61,36.34-81.38,67-111.78,21.86-21.68,48.24-38.07,75.56-52.42,76.3-40,162.38-64.76,252.08-62.73,39.35.88,81,7.6,115.39,31.59s59,69,48.64,106.87c-4.27,15.65-13.81,28.58-23.26,41.12-13.92,18.43-28.17,37-36.51,59.14-8.62,22.84-12.94,57.51,7.65,77.49C1222.79,636.3,1241.93,655.34,1240,688.06Z" transform="translate(-665.71 -298.55)"/><g class="cls-3"><path class="cls-4" d="M777.7,662s10.94-3.38,19.1,2.57c0,0-4.27,4.25-15.87,1.17Z" transform="translate(-665.71 -298.55)"/><path class="cls-4" d="M776.47,662s-5.62,9-.37,17.11c0,0,5.4-3,4-13.66Z" transform="translate(-665.71 -298.55)"/><path class="cls-4" d="M767.45,650.18s3.06-8,23.09-.67c0,0-1.42,5.3-9.45,6.16S770.32,653.69,767.45,650.18Z" transform="translate(-665.71 -298.55)"/><path class="cls-4" d="M766.19,649.83s-9.52.55-6.67,19.61a10.36,10.36,0,0,0,9.16-6.51C771.69,656.27,769.29,653.19,766.19,649.83Z" transform="translate(-665.71 -298.55)"/><path class="cls-4" d="M757.75,635.58s2.68-13.7,23.56-7.59c0,0-2,12.51-20.74,11.67Z" transform="translate(-665.71 -298.55)"/><path class="cls-4" d="M748.06,617.25s7.31-14.58,27.27-5.31c0,0-3.71,13.2-24.85,9.72Z" transform="translate(-665.71 -298.55)"/><path class="cls-4" d="M742.31,599.29s9.17-13.8,29-4.62c0,0-8.88,12.25-28.35,7.68Z" transform="translate(-665.71 -298.55)"/><path class="cls-4" d="M737,581.78s9.22-14.35,28.23-5.18c0,0-11,13.12-27.64,8.11Z" transform="translate(-665.71 -298.55)"/><path class="cls-4" d="M734.87,565.81s9.1-18,26.87-9.62c0,0-10.45,15.91-26.27,12.67Z" transform="translate(-665.71 -298.55)"/><path class="cls-4" d="M734.05,546.9s9.87-18,27.46-8.22c0,0-12.7,16.27-26.88,11.14Z" transform="translate(-665.71 -298.55)"/><path class="cls-4" d="M735.12,529.7s12.43-17.44,27.16-13.61c0,0-12.94,18.47-27,17.7Z" transform="translate(-665.71 -298.55)"/><path class="cls-4" d="M737.44,513.2s14.19-21.17,25.78-16.71c0,0-10.31,16.3-26.38,20.37Z" transform="translate(-665.71 -298.55)"/><path class="cls-4" d="M741.58,493.82s12.63-17.47,24.77-15.57c0,0-10.26,17.67-25.93,20.58Z" transform="translate(-665.71 -298.55)"/><path class="cls-4" d="M745.26,475.72s14.4-17.1,22.4-15.76c0,0-9.28,17.92-22.52,19.07Z" transform="translate(-665.71 -298.55)"/><path class="cls-4" d="M749,459s11.45-19.46,19.81-19.46c0,0-6,16.7-19.46,21.19Z" transform="translate(-665.71 -298.55)"/><path class="cls-4" d="M752.32,436.63s10.52-15.22,17.62-16.35c0,0-6.88,19.19-17.31,20.69Z" transform="translate(-665.71 -298.55)"/><path class="cls-4" d="M754,421.85l7.24-29.38s5.56,24.62-7.84,34.68Z" transform="translate(-665.71 -298.55)"/><path class="cls-4" d="M753.1,390.86s-2.45-23.17-4.16-24.85c0,0,12.85,17.55,6.09,34.93Z" transform="translate(-665.71 -298.55)"/><path class="cls-4" d="M757.19,635.38s-14.6-5.12-19.58,13.9c0,0,13.07,5,22-9.64Z" transform="translate(-665.71 -298.55)"/><path class="cls-4" d="M747.49,616.61s-17.42-3.93-21.58,15.74c0,0,14,5.58,24-11.31Z" transform="translate(-665.71 -298.55)"/><path class="cls-4" d="M741.78,600.51s-13.93-10.12-29,4.61c0,0,13,8.75,29.57-1.56Z" transform="translate(-665.71 -298.55)"/><path class="cls-4" d="M736.57,581.84s-14.19-10.61-28.49,3.86c0,0,15.4,8.92,29.07-.93Z" transform="translate(-665.71 -298.55)"/><path class="cls-4" d="M735,566.27s-11.8-16.7-28.1-6.11c0,0,12.81,14.43,28,9.21Z" transform="translate(-665.71 -298.55)"/><path class="cls-4" d="M735.06,546.64s-11.81-17-28.22-5.63c0,0,14.43,15,28,8.59Z" transform="translate(-665.71 -298.55)"/><path class="cls-4" d="M736.86,529.52s-7.22-19.56-22.54-18.95c0,0,7.4,20.67,21.27,22.92Z" transform="translate(-665.71 -298.55)"/><path class="cls-4" d="M737.78,513.18s-6.06-24-18.63-22.85c0,0,4.07,18.29,17.92,26.49Z" transform="translate(-665.71 -298.55)"/><path class="cls-4" d="M742.73,492.92s-7.7-19.52-20-20.1c0,0,5.35,19.25,19.84,25.21Z" transform="translate(-665.71 -298.55)"/><path class="cls-4" d="M746.7,475.64s-4.3-20.92-12.15-22.85c0,0-.71,19.67,10.58,25.87Z" transform="translate(-665.71 -298.55)"/><path class="cls-4" d="M749.55,458.63s-5.31-21.42-13.41-23.26c0,0,.84,17.48,12.57,24.85Z" transform="translate(-665.71 -298.55)"/><path class="cls-4" d="M753.72,438.18s-3.54-17.53-9.71-20.8c0,0-1.5,20.07,7.64,24.8Z" transform="translate(-665.71 -298.55)"/><path class="cls-4" d="M753.16,421.06l-11-28.38s-2.33,25.06,12.32,33.61Z" transform="translate(-665.71 -298.55)"/><path class="cls-4" d="M748.4,391.9S731.13,374.39,731,372.15c0,0,5.52,20.36,24.36,27.94Z" transform="translate(-665.71 -298.55)"/><path class="cls-4" d="M748.81,385.86S730.65,360,724.5,358.62c0,0,19.61,5.24,25.2,26.27Z" transform="translate(-665.71 -298.55)"/><path class="cls-5" d="M752.6,441.16l-.91-.1c4.52-32.39,3.28-52.41-3.52-56.37l.51-.67C755.89,388.22,757.23,408,752.6,441.16Z" transform="translate(-665.71 -298.55)"/><path class="cls-5" d="M737.63,517.75l-1.36-.2c.57-3,1.22-6,1.93-9.06,6.23-26.26,11.15-50.55,13.72-69l1-.67c-2.59,18.52-7.16,43.63-13.39,69.93C738.83,511.7,738.19,514.73,737.63,517.75Z" transform="translate(-665.71 -298.55)"/><path class="cls-5" d="M798.13,682.42c-.21-.14-20.87-14.57-38.77-42a163.39,163.39,0,0,1-22.26-51.63c-5.37-22.7-5-49-.38-73.67l1.22.88c-10.45,55.28,6.69,98.5,23,123.55,17.66,27.17,38.1,41.45,38.31,41.59Z" transform="translate(-665.71 -298.55)"/></g><g class="cls-3"><path class="cls-6" d="M781.3,681.83s10.8-6,20.53.17c0,0-3.63,6-16.41,4Z" transform="translate(-665.71 -298.55)"/><path class="cls-6" d="M780,682.07s-4.11,12.12,3,21.43c0,0,5.07-4.61,1.47-17.7Z" transform="translate(-665.71 -298.55)"/><path class="cls-6" d="M768.23,668.74s1.62-10.5,24.08-4.52c0,0-.44,6.85-8.7,9.21S771.93,672.67,768.23,668.74Z" transform="translate(-665.71 -298.55)"/><path class="cls-6" d="M766.84,668.52s-9.88,2.2-3.13,25.55c0,0,6.47-.8,8.32-9.6S770.75,672.22,766.84,668.52Z" transform="translate(-665.71 -298.55)"/><path class="cls-6" d="M755.18,652.07s.11-17.55,23.2-13.25c0,0,.38,15.94-19.44,17.88Z" transform="translate(-665.71 -298.55)"/><path class="cls-6" d="M741.41,630.71s4.78-19.37,27.54-11c0,0-1.29,17.08-24.14,16.11Z" transform="translate(-665.71 -298.55)"/><path class="cls-6" d="M731.83,609.21s6.9-18.71,29.46-10.39c0,0-6.9,16.7-28.21,14.1Z" transform="translate(-665.71 -298.55)"/><path class="cls-6" d="M722.77,588.19s6.84-19.4,28.58-11c0,0-9,18.15-27.38,14.54Z" transform="translate(-665.71 -298.55)"/><path class="cls-6" d="M717.43,568.58s6-24,26.28-16.31c0,0-7.82,21.54-25,20Z" transform="translate(-665.71 -298.55)"/><path class="cls-6" d="M712.84,545.09S719.64,521,740,530.45c0,0-10.11,22.35-26,18.2Z" transform="translate(-665.71 -298.55)"/><path class="cls-6" d="M710.57,523.45s9.6-23.77,25.8-21.35c0,0-9.93,25.13-24.85,26.43Z" transform="translate(-665.71 -298.55)"/><path class="cls-6" d="M709.75,502.46s10.71-28.71,23.74-25c0,0-7.6,22-23.64,29.66Z" transform="translate(-665.71 -298.55)"/><path class="cls-6" d="M710.27,477.6s9.81-23.83,22.91-23.4c0,0-7.27,23.7-23.13,29.84Z" transform="translate(-665.71 -298.55)"/><path class="cls-6" d="M710.57,454.41s11.72-23.66,20.38-23.26c0,0-6.2,23.86-19.86,27.4Z" transform="translate(-665.71 -298.55)"/><path class="cls-6" d="M711.23,432.86s8.16-26.14,16.93-27.47c0,0-3,21.81-16.23,29.58Z" transform="translate(-665.71 -298.55)"/><path class="cls-6" d="M710.26,404.46s8-20.69,15.25-23.23c0,0-3.42,25.06-14.06,28.6Z" transform="translate(-665.71 -298.55)"/><path class="cls-6" d="M709.07,385.74l1.79-37.86s10.69,29.87-1.38,44.57Z" transform="translate(-665.71 -298.55)"/><path class="cls-6" d="M702.06,347.17s-7.14-28.55-9.27-30.37c0,0,16.93,19.87,13.28,42.66Z" transform="translate(-665.71 -298.55)"/><path class="cls-6" d="M754.55,651.9s-16.32-4.06-17.79,20.48c0,0,14.69,4.17,21.19-15.55Z" transform="translate(-665.71 -298.55)"/><path class="cls-6" d="M740.68,630s-19-2.13-19.53,23.1c0,0,15.75,4.74,22.92-18Z" transform="translate(-665.71 -298.55)"/><path class="cls-6" d="M731.52,610.81s-16.61-10.41-29.47,10.39c0,0,15.4,8.84,30.7-6.68Z" transform="translate(-665.71 -298.55)"/><path class="cls-6" d="M722.38,588.33s-17-11-29.12,9.36c0,0,17.91,8.69,30.3-5.8Z" transform="translate(-665.71 -298.55)"/><path class="cls-6" d="M717.62,569.14S702,550.17,687,566c0,0,16.28,16,31.14,7Z" transform="translate(-665.71 -298.55)"/><path class="cls-6" d="M713.85,544.61s-15.73-19.36-30.7-2.53c0,0,18.09,16.49,31,6.26Z" transform="translate(-665.71 -298.55)"/><path class="cls-6" d="M712.37,522.93S700.94,499.66,685,502.87c0,0,11.84,24.64,26.83,25.23Z" transform="translate(-665.71 -298.55)"/><path class="cls-6" d="M710.11,502.38s-11.09-29-24.05-25.56c0,0,7.88,22.19,24,30.23Z" transform="translate(-665.71 -298.55)"/><path class="cls-6" d="M711.31,476.29s-11.93-23.15-25-21.9c0,0,9.41,23.18,25.78,28.32Z" transform="translate(-665.71 -298.55)"/><path class="cls-6" d="M712.06,454.08s-8.63-25.45-17.25-26.61c0,0,3.14,24.69,16.2,30.62Z" transform="translate(-665.71 -298.55)"/><path class="cls-6" d="M711.69,432.38s-9.79-25.9-18.64-26.91c0,0,4.33,21.7,18.08,29Z" transform="translate(-665.71 -298.55)"/><path class="cls-6" d="M712,406.18s-7.16-21.33-14.27-24.44c0,0,2.37,25.31,12.9,29.75Z" transform="translate(-665.71 -298.55)"/><path class="cls-6" d="M708.07,384.88l-17.14-33.69s2.49,31.68,19.53,40Z" transform="translate(-665.71 -298.55)"/><path class="cls-6" d="M697.33,349.22s-21.55-19.11-22.16-21.88c0,0,9.79,24.54,31.05,31Z" transform="translate(-665.71 -298.55)"/><path class="cls-6" d="M696.57,341.61s-24.14-29.43-30.86-30.13c0,0,21.6,3.4,31.6,28.77Z" transform="translate(-665.71 -298.55)"/><path class="cls-7" d="M711.45,410.07l-1,0c-1.65-41.17-6.9-66-14.81-69.83l.4-.93C704.46,343.43,709.77,367.9,711.45,410.07Z" transform="translate(-665.71 -298.55)"/><path class="cls-7" d="M710.85,508.11l-1.46,0c0-3.82.08-7.73.23-11.63,1.36-33.78,1.73-64.9.79-88.37l.93-1c.94,23.55,1.09,55.64-.25,89.47C710.92,500.37,710.84,504.26,710.85,508.11Z" transform="translate(-665.71 -298.55)"/><path class="cls-7" d="M806.75,704.12c-.24-.15-24.75-14.87-48.93-46.27a229.83,229.83,0,0,1-33.52-60.93c-10.11-27.49-15-60.45-14.92-91.95l1.45.91c-.06,70.71,26.43,121.94,48.47,150.64,23.87,31.11,48.12,45.68,48.37,45.82Z" transform="translate(-665.71 -298.55)"/></g><g class="cls-8"><ellipse class="cls-4" cx="1151.46" cy="639.2" rx="8.82" ry="6.73" transform="translate(-534.95 1172.88) rotate(-68.23)"/><path class="cls-4" d="M1202.22,580.09a32.25,32.25,0,0,1-14.79,37,32.27,32.27,0,1,1-47.1-18.81,32.32,32.32,0,0,1,6.41-30.06l19.7,16.72-16.91-19.6a32.65,32.65,0,0,1,5.6-4.11,31.68,31.68,0,0,1-1-4.52,32.27,32.27,0,1,1,63.87-9.24l-28.45,7.36,28.78-2.84a32.3,32.3,0,0,1-10,23.51l-17.72-7.23,15.36,9.29a34,34,0,0,1-3.7,2.47Z" transform="translate(-665.71 -298.55)"/><path class="cls-9" d="M1187.43,617.12a32.26,32.26,0,1,1-47.1-18.81,32.17,32.17,0,0,1,1-21.08C1142.66,573.86,1193.48,613.62,1187.43,617.12Z" transform="translate(-665.71 -298.55)"/></g><g class="cls-8"><ellipse class="cls-4" cx="799.99" cy="570.4" rx="14.17" ry="18.25" transform="translate(-804.19 -19.05) rotate(-18.27)"/><path class="cls-4" d="M706.76,436.9a71.59,71.59,0,0,1-7.22-6L734,415.85l-39,10.27a65.81,65.81,0,0,1-15.73-50.52l60,13.09-58.2-22.23c9.45-35.34,46.73-56.15,83.27-46.48s58.51,46.16,49.07,81.5a63.38,63.38,0,0,1-3.14,9,68.63,68.63,0,0,1,10.84,9.79L781,456l45.34-29.13a65,65,0,0,1,6.54,63c30.42,22.1,37,63.71,14.62,92.93s-65.12,35-95.54,12.89c-25.43-18.48-34.77-51.28-22.59-79.37-25.41-18.48-34.74-51.26-22.58-79.33Z" transform="translate(-665.71 -298.55)"/><path class="cls-9" d="M835.65,446.52a64.08,64.08,0,0,1-2.79,43.27c30.42,22.1,37,63.71,14.63,92.93s-65.12,35-95.54,12.89c-25.43-18.48-34.77-51.28-22.6-79.37C717.42,507.57,833.6,439.31,835.65,446.52Z" transform="translate(-665.71 -298.55)"/></g><ellipse class="cls-4" cx="496.29" cy="391.47" rx="37.34" ry="7.18"/><ellipse class="cls-10" cx="495.66" cy="388.43" rx="4.35" ry="5.69"/><ellipse class="cls-10" cx="495.66" cy="381.47" rx="4.35" ry="5.69"/><ellipse class="cls-10" cx="495.66" cy="374.51" rx="4.35" ry="5.69"/><ellipse class="cls-10" cx="495.66" cy="367.56" rx="4.35" ry="5.69"/><ellipse class="cls-10" cx="495.66" cy="360.6" rx="4.35" ry="5.69"/><ellipse class="cls-10" cx="495.66" cy="353.64" rx="4.35" ry="5.69"/><ellipse class="cls-10" cx="495.66" cy="346.69" rx="4.35" ry="5.69"/><path class="cls-4" d="M1177.66,597.64a22.79,22.79,0,0,0,1.62-2.39l-11.42-1.88,12.35.09a20.74,20.74,0,0,0,.4-16.49L1164,585.56l15.29-11.23a20.83,20.83,0,1,0-36,21,22.36,22.36,0,0,0,1.57,2.31,20.59,20.59,0,0,0-2.37,3.79l14.83,7.73-15.82-5.32a20.9,20.9,0,0,0,3.32,19.57,20.82,20.82,0,1,0,32.74,0,20.86,20.86,0,0,0,0-25.75Z" transform="translate(-665.71 -298.55)"/><path class="cls-11" d="M1140.47,610.51a20.77,20.77,0,0,0,4.42,12.88,20.82,20.82,0,1,0,32.74,0C1180.45,619.84,1140.47,608.16,1140.47,610.51Z" transform="translate(-665.71 -298.55)"/><g class="cls-12"><path class="cls-13" d="M1111.32,407c-16.47-42.74-50-65.27-74.4-59-32.52,8.33-39.07,65.13-39.67,70.83-7.93,76.27,65.47,133,75.92,140.78,4.06-.57,98.21-15.25,121.38-85,11.19-33.65,8.24-87.37-19.65-97.38C1156.81,370.72,1131.8,383.93,1111.32,407Z" transform="translate(-665.71 -298.55)"/><path class="cls-14" d="M1102,446.58c-10.85-25.15-32.09-38.72-47.29-35.37-20.22,4.45-23.59,37.53-23.89,40.85-4,44.43,42.65,78.43,49.28,83.13,2.54-.29,61.23-7.68,74.83-48.08,6.56-19.5,4-50.9-13.54-57.09C1130,426,1114.51,433.39,1102,446.58Z" transform="translate(-665.71 -298.55)"/><path class="cls-15" d="M1081.27,456.45l-1.92.31h0a134.34,134.34,0,0,0-8.67,21.26l-1.37,5.4c-.36,1.46-.71,2.88-1,4.25l-.8,2.72s-8.85,27.2-8.91,28.18a14.86,14.86,0,0,0,1.06,3.72q-.37.84-.81,1.77c8.46,7.45,26.2,13,37.39,11.72.11-.67.23-1.31.34-1.91a14.83,14.83,0,0,0,3-2.45c.5-.84,7.47-28.63,7.47-28.63l.9-2.69c.5-1.31,1-2.67,1.57-4.09l2-5.21a135.75,135.75,0,0,0,5-22.42h0l-3.64-3.63-9-5.87a5.7,5.7,0,0,1-9-2.51h0Z" transform="translate(-665.71 -298.55)"/><path class="cls-16" d="M1081.27,456.45l-1.92.31h0s-.62,1.15-1.59,3.19c-.38,12.72-.5,23.92-.5,23.92l9.09-.53s2.37-18.52,2.64-19.57,5.47-3.62,5.47-3.62,5.9.25,6.42.56,2.68,7.91,2.25,8.66-7.5,14.15-8.55,16.14-12.15,33.85-12.4,34.48-9,6.46-9,6.46l-5.47,3.29c8.94,4.34,20.42,7,28.49,6,.11-.67.23-1.31.34-1.91a14.83,14.83,0,0,0,3-2.45c.5-.84,7.47-28.63,7.47-28.63l.9-2.69c.5-1.31,1-2.67,1.57-4.09l2-5.21a135.75,135.75,0,0,0,5-22.42h0l-3.64-3.63-9-5.87a5.7,5.7,0,0,1-9-2.51h0Z" transform="translate(-665.71 -298.55)"/><path class="cls-17" d="M1078.41,458.62c-.35.71-.78,1.61-1.28,2.69,9.95,2.92,25.41,7.1,39,9.18.2-1.34.29-2.1.29-2.1h0l-.94-.94a327.63,327.63,0,0,1-37-8.83Zm-3.11,6.83c10,2.95,26.14,7.37,40.06,9.46-.16.88-.35,1.83-.56,2.85-14.16-2.11-30.56-6.59-40.62-9.57.38-1,.76-1.88,1.12-2.74Zm-2.72,6.94c-.33.91-.66,1.83-1,2.79,10.08,3,27,7.65,41.5,9.78.26-1,.5-1.91.72-2.83-14.36-2.1-31.25-6.75-41.24-9.74Zm-2.27,7.08c10,3,27.07,7.72,41.58,9.83-.15.5-.3,1-.46,1.51l-.49,1.29c-14.47-2.14-31.31-6.77-41.35-9.77l.72-2.86Zm-1.8,7.23-.23,1-.55,1.86c9.91,2.95,26.3,7.45,40.54,9.62.35-.9.71-1.83,1.07-2.78-14.28-2.13-30.94-6.73-40.83-9.68Zm-2.14,7.12c9.76,2.91,26.24,7.47,40.47,9.65l-.71,2.82c-14.34-2.19-30.81-6.73-40.66-9.67.33-1,.64-2,.9-2.8Zm-2.28,7.07c-.3.92-.6,1.86-.9,2.81,9.86,2.94,26.61,7.58,41.12,9.78.25-1,.49-1.92.72-2.83-14.42-2.18-31.18-6.84-40.94-9.76Zm-2.27,7.08c9.76,2.93,26.79,7.68,41.38,9.87-.25.95-.49,1.9-.73,2.83-14.68-2.22-31.68-6.94-41.54-9.89.28-.9.58-1.84.89-2.81Zm-2.23,7.09c-.38,1.23-.68,2.21-.85,2.83,9.86,3,27,7.73,41.84,10,.23-.84.48-1.79.76-2.82-14.73-2.2-32-7-41.75-10Zm-.17,7.71c9.89,2.93,25.75,7.25,39.5,9.34a21.9,21.9,0,0,1-2.37,1.77c0,.26-.09.51-.14.78a320.68,320.68,0,0,1-34.17-8,32.87,32.87,0,0,1-3.42-2.59l.6-1.3Zm48.22-61.35-3.88-2.53a6.56,6.56,0,0,1-2.39,1.15c2.07.48,4.17.94,6.27,1.38Zm-11.18-2.56c-3.25-.81-6.4-1.64-9.32-2.44l7.62,0h0A5.36,5.36,0,0,0,1096.46,458.86Z" transform="translate(-665.71 -298.55)"/><path class="cls-18" d="M1078.41,458.62l-.65,1.34c0,.51,0,1,0,1.52,3.24.95,7,2,11.13,3.1.07-.41.12-.7.14-.8.11-.41,1-1,2-1.68-4.66-1.22-9-2.43-12.55-3.48Zm24.67,9.41c4.38,1,8.79,1.81,13,2.46.2-1.34.29-2.1.29-2.1h0l-.94-.94c-4.28-.69-8.72-1.59-13.1-2.57.3,1.14.58,2.29.72,3.15Zm-25.82,15.85,7.24-.42c-2.53-.66-5-1.32-7.21-2,0,1.52,0,2.38,0,2.38Zm9.6-4.45c.11-.9.24-1.89.38-2.94-3.52-.91-6.84-1.83-9.82-2.68,0,1.08,0,2.1-.05,3,2.9.83,6.11,1.7,9.49,2.58Zm1-7.43c.13-1,.27-2,.39-2.93-3.87-1-7.49-2-10.63-2.95,0,1,0,2.06-.07,3,3.09.89,6.58,1.87,10.31,2.84Zm13.73.31-1.42,2.68c4.92,1.09,9.92,2.06,14.66,2.77.21-1,.4-2,.56-2.85-4.46-.67-9.15-1.58-13.8-2.6Zm-3.6,6.8-1.41,2.68c5.54,1.26,11.21,2.39,16.55,3.17.26-1,.5-1.91.72-2.83-5.11-.75-10.54-1.82-15.86-3Zm-3.56,6.8c-.23.54-.59,1.5-1.07,2.76,5.87,1.36,11.93,2.59,17.61,3.43l.49-1.29c.16-.51.31-1,.46-1.51-5.63-.82-11.65-2-17.49-3.39Zm-2.63,7c-.31.88-.65,1.81-1,2.77,5.81,1.36,11.82,2.59,17.49,3.46.35-.9.71-1.83,1.07-2.78-5.67-.85-11.72-2.08-17.57-3.45Zm-2.52,7-1,2.77c5.91,1.39,12.06,2.67,17.86,3.55l.71-2.82c-5.69-.88-11.75-2.13-17.59-3.5Zm-2.49,7c-.34.95-.67,1.88-1,2.77,6.13,1.46,12.52,2.79,18.53,3.7.25-1,.49-1.92.72-2.83-5.91-.89-12.22-2.2-18.27-3.64Zm-2.49,7-1,2.77c6.33,1.51,13,2.9,19.17,3.84.24-.93.48-1.88.73-2.83-6.12-.92-12.67-2.29-18.93-3.78Zm-3.15,6.88c-.8.61-1.95,1.43-3.12,2.25,7.32,1.82,15.25,3.55,22.58,4.65.23-.84.48-1.79.76-2.82-6.54-1-13.57-2.47-20.22-4.08Zm-8.09,5.62-3.51,2.11c8.27,2.21,17.92,4.52,26.89,6,0-.27.09-.52.14-.78a21.9,21.9,0,0,0,2.37-1.77,259.35,259.35,0,0,1-25.89-5.55Zm34.61-65.14-3.88-2.53a6.56,6.56,0,0,1-2.39,1.15c2.07.48,4.17.94,6.27,1.38Zm-11.18-2.56a5.36,5.36,0,0,1-1.7-2.48h0l-7.62,0C1090.06,457.22,1093.21,458.05,1096.46,458.86Z" transform="translate(-665.71 -298.55)"/><path class="cls-19" d="M1108.91,462.25l-5.15-3.36a5.7,5.7,0,0,1-9-2.51h0l-5.82,0a3.84,3.84,0,0,0,.07,1.12c1.18,5.43,5,10,10.65,10a11.12,11.12,0,0,0,8.74-4.48A3.85,3.85,0,0,0,1108.91,462.25Z" transform="translate(-665.71 -298.55)"/><path class="cls-20" d="M1108.91,462.25l-5.15-3.36a5.7,5.7,0,0,1-9-2.51h0l-5.82,0a3.84,3.84,0,0,0,.07,1.12,15.34,15.34,0,0,0,1.82,4.65c1.59-1,3.63-2,3.63-2s5.9.25,6.42.56c.35.2,1.47,3.83,2,6.34a11.88,11.88,0,0,0,5.51-4A3.85,3.85,0,0,0,1108.91,462.25Z" transform="translate(-665.71 -298.55)"/><path class="cls-19" d="M1079.35,456.76c-8.29,2.54-11.43,2.16-15.88,11.68-2.16,4.64-9.69,24.77-10.92,27.9s-13.14,27.89-13.14,27.89a1,1,0,0,0,.18.89c.36.52,5.07,1.6,8.1,3.45a1.07,1.07,0,0,0,1.21-.61c.44-.82,9.52-18.32,12.65-24.83s9.71-20,9.71-20Z" transform="translate(-665.71 -298.55)"/><path class="cls-21" d="M1079.35,456.76c-5.43,1.67-8.65,2.07-11.48,4.84a7.49,7.49,0,0,1,2.25,6.94c-1.39,6.13-4.79,18-5.57,20.06s-2.12,1-3,1.2,1.66.87,1.86,1.53-13.21,27.94-14.53,29.93c-1,1.55-4.54,1.63-8.34.66l-1.11,2.31a1,1,0,0,0,.18.89c.36.52,5.07,1.6,8.1,3.45a1.07,1.07,0,0,0,1.21-.61c.44-.82,9.52-18.32,12.65-24.83s9.71-20,9.71-20Z" transform="translate(-665.71 -298.55)"/><path class="cls-19" d="M1116.4,468.39s3,3.16,3.89,5.14,1.1,9.77-.46,23.67-2.74,17.81-7.56,34l-2.74,9.41s-.31.52-.61.56c0,0-4.39-2.79-8.11-2a1.29,1.29,0,0,1-.8-.83c-.16-.63,6.53-30.33,6.59-31.68S1111.84,476.51,1116.4,468.39Z" transform="translate(-665.71 -298.55)"/><path class="cls-21" d="M1116.4,468.39s3,3.16,3.89,5.14a15.59,15.59,0,0,1,.65,4.77,7.42,7.42,0,0,0-2.62,2.11c-1.66,2.62-7.65,19.31-8,20.92s1.32,2,1.85,2.49-.09-.31-1.58.87-6,27.3-6.22,29.05c-.12,1,3.09,2.56,6.06,3.84l-.89,3s-.31.52-.61.56c0,0-4.39-2.79-8.11-2a1.29,1.29,0,0,1-.8-.83c-.16-.63,6.53-30.33,6.59-31.68S1111.84,476.51,1116.4,468.39Z" transform="translate(-665.71 -298.55)"/><path class="cls-21" d="M1107,459s.94,4,.69,5.08-8.9,16-10.39,18.91-13.37,36.56-13.37,36.56a25,25,0,0,0-.67,2.92c-.37,2-2.17,13.78-2.23,14.69a2.27,2.27,0,0,0,1.2,2.18c.71.29,14.55,2,16.52,1.46,0,0,1.74-.39,2.35-3.09s6.37-34.34,6.54-35.24,7.87-19.13,8.79-34.09Z" transform="translate(-665.71 -298.55)"/><path class="cls-20" d="M1107,459s.94,4,.69,5.08-8.9,16-10.39,18.91c-.76,1.47-4.2,10.89-7.4,19.79,3.08-4.81,8.94-13.93,10-15.12,1.46-1.65,11.92-7.91,12.39-7.65a14.55,14.55,0,0,1,1.64,3,81.32,81.32,0,0,0,2.49-14.65L1107,459Zm-25.28,73.27a7.12,7.12,0,0,0,3.21,3.66c3.77,1.52,12.22-5.74,14.42-8.69s6-20.29,6.06-21.07-1.92-1.17-2.37-1.64,4.25-1.28,6.14-6.27c-.88,2.42-1.49,4-1.54,4.21-.17.9-5.93,32.55-6.54,35.24s-2.35,3.09-2.35,3.09c-2,.52-15.81-1.17-16.52-1.46a2.27,2.27,0,0,1-1.2-2.18C1081,536.81,1081.32,534.76,1081.69,532.28Z" transform="translate(-665.71 -298.55)"/><path class="cls-21" d="M1089.28,455.14s-2.34,3.66-2.66,4.47-.17,18.4-.27,23.74-7.17,33.93-7.56,35.53-4.27,14.15-4.54,14.85a2.08,2.08,0,0,1-2.08,1.17c-.82-.15-15.71-6-16.45-6.35a4.46,4.46,0,0,1-1.7-4.95c.74-2.64,12.52-29.7,13.56-33.54s2.94-14.34,5.64-21.08a85.15,85.15,0,0,1,6.13-12.22Z" transform="translate(-665.71 -298.55)"/><path class="cls-20" d="M1089.28,455.14s-2.34,3.66-2.66,4.47-.17,18.4-.27,23.74a55.9,55.9,0,0,1-1.17,7.63c-.27-2-.92-6.73-.91-7.58,0-1.07-5-13.21-5.26-13.58a8.08,8.08,0,0,0-3.19-1.55c-1.87-.61-3.56,3.38-3.61,3.51.32-1,.66-1.92,1-2.8a85.15,85.15,0,0,1,6.13-12.22l9.93-1.62Zm-13.36,73.3a3,3,0,0,1-2.89,1.15c-5-1.32-11.48-11.24-12.22-13.65s4.68-14.31,5.37-16.06a9.26,9.26,0,0,1,3-3.8c.89-.65-1.22-7.26.14-12.65a1,1,0,0,0,0-.69c-.7,3.08-1.27,5.75-1.7,7.32-1,3.84-12.82,30.9-13.56,33.54a4.46,4.46,0,0,0,1.7,4.95c.74.36,15.63,6.2,16.45,6.35a2.08,2.08,0,0,0,2.08-1.17C1074.36,533.44,1075.08,531.15,1075.92,528.44Z" transform="translate(-665.71 -298.55)"/><path class="cls-22" d="M1093.91,456.39s-1.83-2.65-2.49-2.92a18.4,18.4,0,0,0-6.44.47c-1.57.56-10.85,10.39-11.36,11.25s-.14,1,.08,1.17,4.73,1.28,6.37,1.88c0,0,.44.08.67.77s4.56,12.95,4.63,14.42-.22,7.7-.22,7.7,1.18-4.78,1.36-6.36a31.07,31.07,0,0,0,.1-3.78c0-.84.21-21.25.21-21.25a.63.63,0,0,1,.08-.28c.08-.15,1-2.12,1-2.12Z" transform="translate(-665.71 -298.55)"/><path class="cls-23" d="M1093.91,456.39s2.1-1.91,1.66-2.09a9,9,0,0,0-4.89-.81c-6.23,1-3.9,1.32-7.26,8.72-1.6,3.53-2.62,3.37-9.43,2.39-.19.29-.31.5-.37.59-.51.85-.14,1,.08,1.17s4.73,1.28,6.37,1.88c0,0,.44.08.67.76.66-.64,1.67-1.51,2.14-1.38.73.2,2.27,1,2.37,3.7.23,6.43.16,13.34-.1,19.81,0,0,1.18-4.78,1.36-6.36a31.07,31.07,0,0,0,.1-3.78c0-.84.21-21.25.21-21.25a.63.63,0,0,1,.08-.28c.08-.15,1-2.12,1-2.12Z" transform="translate(-665.71 -298.55)"/><path class="cls-22" d="M1105.26,457.54a37.48,37.48,0,0,1,4.19,2.95c.74.8,7.67,13.64,8.12,15.64,0,0,.32,1.66-1,1.49s-3.5-.79-4.21-.79-10.93,7.3-13.12,9.29-9,15.7-9,15.7l6.77-18.69c.22-.6,2.4-4.54,4.51-8.29s5.76-10.3,5.92-10.73-1.2-3.17-1.2-3.17l-1.55-1.51Z" transform="translate(-665.71 -298.55)"/><path class="cls-23" d="M1105.26,457.54s1,.61,2,1.3a1.71,1.71,0,0,0,0,1.58c5.21,6.18-2,7.37.29,10.17.65.79,5.36,4.78,7.89,5.4,1.09.27,1.64,0,1.91-.49a3.51,3.51,0,0,1,.21.63s.32,1.66-1,1.49-3.5-.79-4.21-.79a1.53,1.53,0,0,0-.41.16c-2.72-1.4-7.58-3.79-8.09-3.18-.72.86-4.83,7.71-5.11,9-.56,2.58-7.22,16.34-8.56,19l6.77-18.69c.22-.6,2.4-4.54,4.51-8.29s5.76-10.3,5.92-10.73-1.2-3.17-1.2-3.17l-1.55-1.51Z" transform="translate(-665.71 -298.55)"/><path class="cls-24" d="M1109.41,444.85l-1.41,3.93-2.94,9.41a3.65,3.65,0,0,0,.76,2.68c-4.15,5.26-11.73,3.93-13.51-4.24a3.56,3.56,0,0,0,2.15-1.76l2.94-9.41,1.09-4s2.52,1.36,5.07,2.95C1106.56,444.52,1109.41,444.85,1109.41,444.85Z" transform="translate(-665.71 -298.55)"/><path class="cls-24" d="M1091.85,434.14l-.27,0h0a3.77,3.77,0,0,0-3.68,2.83,3.59,3.59,0,1,0,6.91,1.92,3.87,3.87,0,0,0-.53-3.27c-.19,1.11-.71,2.41-2,2.21l.59-2.11A1.25,1.25,0,0,0,1091.85,434.14Z" transform="translate(-665.71 -298.55)"/><path class="cls-24" d="M1116.9,440.55l.24.11h0a3.84,3.84,0,0,1-2.56,7.12,3.66,3.66,0,0,1-2.59-4.52,4,4,0,0,1,2-2.61c-.37,1.07-.56,2.46.72,2.93l.51-2.14A1.28,1.28,0,0,1,1116.9,440.55Z" transform="translate(-665.71 -298.55)"/><path class="cls-25" d="M1109.19,418.94h0c-6.54-1.67-13.37,2.63-15.18,9.57L1091,440c-1.82,6.94,2,14,8.58,15.66h0c6.54,1.67,13.37-2.63,15.18-9.57l3-11.47C1119.59,427.66,1115.72,420.62,1109.19,418.94Z" transform="translate(-665.71 -298.55)"/><path class="cls-26" d="M1095,425.83a15.78,15.78,0,0,0-.65,1.52l1,2.24s.44-1.28,3.29-.9a93.92,93.92,0,0,1,11.68,2.81c1.88.67,2.35,1.78,1.75,4.25s-1.4,6.95.92,8c0,0-2.37,14.81-15.48,11.17a11.13,11.13,0,0,0,2,.74h0c6.54,1.67,13.37-2.63,15.18-9.57l3-11.47a13.45,13.45,0,0,0-.38-8.09,20.36,20.36,0,0,0-7.77-2.91C1103.66,423,1097.5,424.93,1095,425.83Z" transform="translate(-665.71 -298.55)"/><path class="cls-20" d="M1096.81,444.82a3.18,3.18,0,1,0,6.08,1.83h0a.57.57,0,0,0-.36-.72l-5-1.51a.56.56,0,0,0-.69.4Z" transform="translate(-665.71 -298.55)"/><path class="cls-27" d="M1097.19,447.67a3,3,0,0,0,3.44,1.29,2.07,2.07,0,0,0-3.44-1.29Z" transform="translate(-665.71 -298.55)"/><path class="cls-15" d="M1102.59,446l-4.71-1.42a1.22,1.22,0,0,0,.14,1.39c.38.28,3.83,1.21,4.15,1A2.16,2.16,0,0,0,1102.59,446Z" transform="translate(-665.71 -298.55)"/><path class="cls-24" d="M1106.6,444.56a1.72,1.72,0,1,0,1.09,2.08A1.67,1.67,0,0,0,1106.6,444.56Z" transform="translate(-665.71 -298.55)"/><path class="cls-24" d="M1094,440.81a1.72,1.72,0,1,0,1.09,2.08A1.66,1.66,0,0,0,1094,440.81Z" transform="translate(-665.71 -298.55)"/><path class="cls-20" d="M1094.85,434.76a.42.42,0,0,1-.51-.34.49.49,0,0,1,.34-.56,3.88,3.88,0,0,1,3.71,1,.48.48,0,0,1,0,.65.42.42,0,0,1-.62,0A3.06,3.06,0,0,0,1094.85,434.76Z" transform="translate(-665.71 -298.55)"/><path class="cls-20" d="M1109.28,438.68a3,3,0,0,0-2.9-.76.42.42,0,0,1-.54-.3.5.5,0,0,1,.31-.58,3.87,3.87,0,0,1,3.71.94.48.48,0,0,1,0,.65A.43.43,0,0,1,1109.28,438.68Z" transform="translate(-665.71 -298.55)"/><path class="cls-20" d="M1107.59,439.86h0a1.08,1.08,0,0,1,.74,1.35l-.37,1.42a1.1,1.1,0,0,1-1.31.83h0a1.1,1.1,0,0,1-.74-1.35l.37-1.42A1.1,1.1,0,0,1,1107.59,439.86Z" transform="translate(-665.71 -298.55)"/><path class="cls-20" d="M1095.75,436.6h0a1.11,1.11,0,0,0-1.31.83l-.37,1.42a1.08,1.08,0,0,0,.74,1.35h0a1.11,1.11,0,0,0,1.31-.83l.37-1.42A1.09,1.09,0,0,0,1095.75,436.6Z" transform="translate(-665.71 -298.55)"/><path class="cls-28" d="M1100.44,425.68c-1.28-.33-3.92-.32-4.63,2.39a34.49,34.49,0,0,1-4.25,9.79,6.64,6.64,0,0,0,.2-3.75l1.67-6.41a12.21,12.21,0,0,1,7-8.63,14.09,14.09,0,0,1,16.25,4.17,12,12,0,0,1,1.94,10.92l-1.67,6.42a6.62,6.62,0,0,0-1.67,3.37c-1.06-.27-.85-1.5-.54-2.69s.55-2.13.55-2.13c-1.63-.41-1.55-2.69-.84-5.4s-1.6-4-2.88-4.32C1108.39,428.58,1103.67,426.51,1100.44,425.68Z" transform="translate(-665.71 -298.55)"/><path class="cls-20" d="M1096.41,426.76c-2.23-2.4-.88-6.52,1.12-8.84.87-1,1.71.64,1.71.64s2.69-4.35,7.35-4.2,4.84,2.88,4.84,2.88,2.15-1.2,3.39-.38a3.43,3.43,0,0,1,1.16,2.74s2.24-.27,2.84.83.18,4,.18,4,1.2-.64,1.89-.22,0,7.92-6.54,7.28h0a4.19,4.19,0,0,0-2.73-2.07l-11.93-3.07c-2-.52-2.21-.28-3.28.42Z" transform="translate(-665.71 -298.55)"/><path class="cls-29" d="M1100.1,417.45a10.32,10.32,0,0,1,1.91-1.69,9,9,0,0,0,6,5.68c3.52,1.18,7.21.08,10.24-1.53a1.32,1.32,0,0,1,.55.52c.61,1.1.18,4,.18,4s1.2-.64,1.89-.22c.23.15.31,1.11,0,2.29C1111.72,427.16,1101.76,426.68,1100.1,417.45Z" transform="translate(-665.71 -298.55)"/><path class="cls-30" d="M1101.3,441.21s-1.25.31-1.55.79a.84.84,0,0,0,.43,1.2C1100.62,443.41,1102,441,1101.3,441.21Z" transform="translate(-665.71 -298.55)"/><path class="cls-31" d="M1073.9,478.31l7.35,1.5a.37.37,0,0,1,.27.44l-.08.37a.37.37,0,0,1-.43.3l-7.35-1.5a.37.37,0,0,1-.27-.44l.08-.37A.37.37,0,0,1,1073.9,478.31Z" transform="translate(-665.71 -298.55)"/><path class="cls-14" d="M1110.05,413.45c-13.87-38.4-42.75-58.4-64-52.5-28.34,7.84-34.63,59.17-35.2,64.32-7.68,68.9,55.52,119.32,64.51,126.28,3.54-.56,85.51-14.75,106.36-77.89,10.07-30.48,8.06-78.93-16.07-87.69C1150,380.29,1128.09,392.46,1110.05,413.45Z" transform="translate(-665.71 -298.55)"/><path class="cls-32" d="M1111.45,407.22c-16.47-42.73-50-65.26-74.4-59-32.51,8.33-39.07,65.14-39.66,70.84-7.93,76.27,65.47,133,75.91,140.77,4.06-.57,98.22-15.24,121.39-85,11.18-33.65,8.23-87.38-19.65-97.39C1156.94,371,1131.94,384.19,1111.45,407.22Z" transform="translate(-665.71 -298.55)"/></g><path class="cls-33" d="M1111.53,407.7c-16.47-42.74-50-65.27-74.4-59-32.52,8.32-39.07,65.13-39.67,70.83-7.93,76.27,65.47,133,75.91,140.78,4.07-.58,98.22-15.25,121.39-85,11.18-33.65,8.24-87.37-19.65-97.38C1157,371.46,1132,384.66,1111.53,407.7Z" transform="translate(-665.71 -298.55)"/><path class="cls-34" d="M875.94,474.53a.36.36,0,0,0,0-.56.46.46,0,0,0-.62,0c-.12.11-41.49,38.19,5.89,80.59a.5.5,0,0,0,.63,0,.38.38,0,0,0,0-.57C835.05,512.16,875.82,474.64,875.94,474.53Z" transform="translate(-665.71 -298.55)"/><path class="cls-34" d="M879.74,416.5C901.8,433,891.05,463.1,873.15,479c-20.71,18.37-28.25,47.78,8.47,70.24s-20.24,41.24-42.36,16.33S809,480.17,810.54,465.1s.94-21.64,13.65-28.18S879.74,416.5,879.74,416.5Z" transform="translate(-665.71 -298.55)"/><path class="cls-35" d="M934.82,522.7s3.17-3.79,3.82-4.37,4.88-.69,7.41-.85a2.73,2.73,0,0,1,3.06,2.74c.06.84.18,1.9.18,1.9s14.57,1.08,15.63,1.29,2.47,3.84,2.76,4.58-.26,2.42-1.35,2.5a3.8,3.8,0,0,1-2.92-1.13c-.44-.63-.82.23-.82.23a7.63,7.63,0,0,1,1.18,2.9,1.91,1.91,0,0,1-1.33,2.26,17.22,17.22,0,0,1-2.79.72,9.45,9.45,0,0,1-.44,2.73c-.38.74-.5,1.06-2.18,1.5s-7.59,1.69-7.59,1.69Z" transform="translate(-665.71 -298.55)"/><path class="cls-36" d="M959.71,535.78a.33.33,0,0,0,.29-.37.35.35,0,0,0-.4-.26l-2.85.41a.32.32,0,0,0-.29.36.35.35,0,0,0,.41.26Z" transform="translate(-665.71 -298.55)"/><path class="cls-34" d="M806.17,650.45s3.76,26.19,28.24,26.19H862c10.12,0,33.42-23.24,51.31-43.46s26.38-34.53,26.38-34.53c4.32,6.58,50.56,39.61,61.39,48.22,2.12,1.69,11.31,11.27,13,11.27,0,0,12.24.74,21.42-4.95,0,0-2.92-11.11-3.53-11.79-27.53-30.76-58.2-65.37-73.41-79.13s-30.79-6.17-66.1,16.16S806.17,650.45,806.17,650.45Z" transform="translate(-665.71 -298.55)"/><path class="cls-34" d="M970.54,515.47l-.86-.83a1.94,1.94,0,0,0-2.52-.08l-26.44,22a1.48,1.48,0,0,0-.09,2.25l.86.83a1.94,1.94,0,0,0,2.52.08l26.44-22A1.48,1.48,0,0,0,970.54,515.47Z" transform="translate(-665.71 -298.55)"/><path class="cls-37" d="M914.11,535.25s3.23-1.32,4.34-2,9.71-10.37,10.83-10.8a81.24,81.24,0,0,1,10-1.15,4.32,4.32,0,0,1,3.3,2,37.86,37.86,0,0,1,1.41,4l14.43.32,3.3-2.74a4.29,4.29,0,0,1,1.69,1c.47.61.5,2.43.44,3.35s-2,3.18-2.5,3.68a6.11,6.11,0,0,1-2.83.92,3.17,3.17,0,0,1-2,2.93c-2,.73-4.45,1.71-4.45,1.71a3.56,3.56,0,0,1-1.58,2.68c-1.48.84-5.42,3.53-5.42,3.53a7.8,7.8,0,0,1-2.35.45,6.6,6.6,0,0,1-2.94,2.81c-1.83.69-8.42,3.27-9.36,3.48s-4.6-.39-8.19,1.47a32.51,32.51,0,0,1-4,1.95l-6.7-16.53Z" transform="translate(-665.71 -298.55)"/><path class="cls-38" d="M1031.7,674.28s54.47,1.16,56.58-2.32v-4.65c0-1.86-2.49-4.53-9.26-6.27s-21.22-5.12-25.66-6.33-17.15-13.65-19-15.16-10.23,3.37-12,4.18-.6,2.79.3,5.11S1031.7,674.28,1031.7,674.28Z" transform="translate(-665.71 -298.55)"/><path class="cls-39" d="M1088.28,676.64h-87.13c-1,0-1.88-.43-1.88-1v-2.76c0-.53.84-1,1.88-1h87.13c1,0,1.88.43,1.88,1v2.76C1090.16,676.21,1089.31,676.64,1088.28,676.64Z" transform="translate(-665.71 -298.55)"/><path class="cls-40" d="M1088.28,676.64h-29.61c-1,0-1.88-.43-1.88-1v-2.76c0-.53.85-1,1.88-1h29.61c1,0,1.88.43,1.88,1v2.76C1090.16,676.21,1089.31,676.64,1088.28,676.64Z" transform="translate(-665.71 -298.55)"/><path class="cls-38" d="M1049.75,656.22c-.3.81-3,4.88-1.13,5.86s7.9,4.53,11.29,4.53h19.49c8.95,0,6.88-2.41,6.88-2.41,1.4,1.1,2,2.2,2,3.11V672h-87.13s-3.69-3.31-3.69-11.1-.49-12.25,1-13.5,2.48-.61,2.48-.61c6.77,4.53,15,1.27,19.27-.52l1.3-.58c3.48-1.61,5.61-3,8.7-1.69,3.46,1.51,15.65,8.19,17.61,9.24S1050.05,655.4,1049.75,656.22Z" transform="translate(-665.71 -298.55)"/><path class="cls-41" d="M1088.28,668.46V672h-87.13s-3.69-3.31-3.69-11.1-.49-12.25,1-13.5a4.74,4.74,0,0,0,4.53,5.28h17.36c6.37,0,7.66,2.64,7.66,2.64s3.21,4.91,5.53,8.39,6.18,5.85,9,5.85h41.89A5.94,5.94,0,0,0,1088.28,668.46Z" transform="translate(-665.71 -298.55)"/><path class="cls-42" d="M1031.14,645.79a.8.8,0,0,1-1-.1.58.58,0,0,1,.29-.84l5.47-3.16.26-.57,1.18,1.1-.25.14-2.24,5a.92.92,0,0,1-1,.46.5.5,0,0,1-.42-.71l1.61-3.58-3.93,2.27Zm15.81,4.84-1.09-.88-1.56,3.48a.5.5,0,0,0,.43.71.93.93,0,0,0,1-.47l1.27-2.84Zm-1.14-.92-3.83,2.2a.78.78,0,0,1-1-.09.57.57,0,0,1,.28-.84l3.59-2.07,1,.8Zm-3.78-3.24c-.5-.43-1-.87-1.45-1.29l-4.74,2.73c-.36.21-.49.59-.29.84a.8.8,0,0,0,1,.1l3.93-2.26-1.61,3.57a.49.49,0,0,0,.42.71.92.92,0,0,0,1-.46Z" transform="translate(-665.71 -298.55)"/><path class="cls-43" d="M906.09,537.9l5.65-2.89a3.79,3.79,0,0,1,2,.11s1.41,13,8.18,17.85a1.44,1.44,0,0,1-.33,1.26c-.5.42-6.56,4.2-6.56,4.2a8.09,8.09,0,0,1-4.88-1c-2.35-1.37-7.65-10.48-7.53-11.64S906.09,537.9,906.09,537.9Z" transform="translate(-665.71 -298.55)"/><path class="cls-44" d="M790.67,650.45s3.76,26.19,28.24,26.19h27.54c10.12,0,33.42-23.24,51.31-43.46s26.38-34.53,26.38-34.53c4.32,6.58,50.56,39.61,61.39,48.22,2.12,1.69,11.31,11.27,13,11.27,0,0,12.24.74,21.42-4.95,0,0-2.92-11.11-3.53-11.79C988.85,610.64,958.18,576,943,562.27s-30.79-6.17-66.1,16.16S790.67,650.45,790.67,650.45Z" transform="translate(-665.71 -298.55)"/><path class="cls-43" d="M844.09,518.19l2.42-1.83S859.86,542.2,862.68,557,853,570,853,570s-8.94-4.63-9.17-10.53S844.09,518.19,844.09,518.19Z" transform="translate(-665.71 -298.55)"/><path class="cls-37" d="M830.43,430.25s-13.07,18.49-32.75,26c0,0-2.26,12.82,7.52,18.27s24.82,1,24.82,1L840,462.47Z" transform="translate(-665.71 -298.55)"/><path class="cls-35" d="M837.6,465.56l1.57-2.07c-1.34-4.91-3.66-13.48-3.66-14.08,0-.84-6.24-8.85-6.24-8.85l-5.06.11.12,17.8Z" transform="translate(-665.71 -298.55)"/><path class="cls-45" d="M782.06,488.09S744.4,548,778.29,638c0,0,3.53,8,3.06,14.74s25.42,10.32,37-7.58,3.76-17.27,16.47-28.43,32.71-24.86,32.71-24.86-5.4-8.84-16.23-10.53c0,0,0-5.68-3.65-6.84,0,0,6-19.38,5.53-32.64s-8.94-36-23.3-52.87c0,0-1.76-4.95.48-8.74s2.58-5.26,1.52-7.16a15.81,15.81,0,0,1-7.76-2.32c-3.53-2.31-12.36-2.52-12.36-2.52Z" transform="translate(-665.71 -298.55)"/><path class="cls-43" d="M794.19,658.28c8.07-.22,18.07-3.69,24.12-13.08,11.53-17.9,3.76-17.27,16.47-28.43s32.71-24.86,32.71-24.86-5.4-8.84-16.23-10.53c0,0,0-5.68-3.65-6.84l.09-.29-28.44,9-30.13-39.59-5,12.15s20.5,56.08,24.73,67.88C812.75,634.35,813.49,649.58,794.19,658.28Z" transform="translate(-665.71 -298.55)"/><path class="cls-45" d="M827.18,519.89c6.66,21.67,4.94,44.86,4.94,44.86s2.41-1.21,2.59,2c10.77-10.76,34.82-8.86,57.25-29.06,4.38-4,14.13.21,14.13.21s-2.36,11.69,8.94,20.53c0,0,3.77,12.22-18.12,23.17s-45,14.11-57.66,22.11-23.07,6.53-30.6-.63-33.19-57.49-30.13-76.45C783.6,495.17,820.52,498.23,827.18,519.89Z" transform="translate(-665.71 -298.55)"/><path class="cls-15" d="M830.92,537.13q.45,3.25.73,6.32A188.51,188.51,0,0,0,784,555.24q-1.11-3.12-2.06-6.14a197.7,197.7,0,0,1,49-12Zm1.16,12.06A198.24,198.24,0,0,0,786,560.61c.79,2,1.61,4,2.45,6a189.24,189.24,0,0,1,43.85-11C832.28,553.66,832.21,551.52,832.08,549.19Z" transform="translate(-665.71 -298.55)"/><path class="cls-37" d="M876.9,416.67s6.93,5.44,2.14,16.94-8.27,16.12-3.66,21.38a1.18,1.18,0,0,1-.24,1.56c-.83.61-3.82,1.66-5.53,2.47s-7.87,9.08-11.63,11.65S846,471.21,839,464s-12.39-24.91-10-32S863.09,413.91,876.9,416.67Z" transform="translate(-665.71 -298.55)"/><path class="cls-44" d="M847.89,433.24s13.24,4.41,25-2.36,16.12-16.74,5.92-25.6-34.31-20.37-54.88-7.3-10.69,32.88-41.23,44.51c-16.12,6.13-28.72,10.32-36.9,18.16-44,42.23,41.36,104.19,71.23,47.82C836.65,471.41,814.21,441,847.89,433.24Z" transform="translate(-665.71 -298.55)"/><path class="cls-42" d="M1016.2,674.28s54.47,1.16,56.58-2.32v-4.65c0-1.86-2.49-4.53-9.26-6.27s-21.22-5.12-25.65-6.33-17.16-13.65-19-15.16-10.24,3.37-12,4.18-.6,2.79.3,5.11S1016.2,674.28,1016.2,674.28Z" transform="translate(-665.71 -298.55)"/><path class="cls-46" d="M1072.78,676.64H985.65c-1,0-1.88-.43-1.88-1v-2.76c0-.53.84-1,1.88-1h87.13c1,0,1.87.43,1.87,1v2.76C1074.65,676.21,1073.81,676.64,1072.78,676.64Z" transform="translate(-665.71 -298.55)"/><path class="cls-15" d="M1072.78,676.64h-29.61c-1,0-1.88-.43-1.88-1v-2.76c0-.53.84-1,1.88-1h29.61c1,0,1.88.43,1.88,1v2.76C1074.66,676.21,1073.81,676.64,1072.78,676.64Z" transform="translate(-665.71 -298.55)"/><path class="cls-41" d="M1034.25,656.22c-.3.81-3,4.88-1.12,5.86s7.9,4.53,11.28,4.53h19.49c8.95,0,6.88-2.41,6.88-2.41,1.4,1.1,2,2.2,2,3.11V672H985.65s-3.69-3.31-3.69-11.1-.49-12.25,1-13.5,2.48-.61,2.48-.61c6.78,4.53,15,1.27,19.26-.52l1.31-.58c3.48-1.61,5.61-3,8.7-1.69,3.46,1.51,15.65,8.19,17.61,9.24S1034.55,655.4,1034.25,656.22Z" transform="translate(-665.71 -298.55)"/><path class="cls-47" d="M1072.78,668.46V672H985.65s-3.69-3.31-3.69-11.1-.49-12.25,1-13.5a4.74,4.74,0,0,0,4.53,5.28h17.36c6.37,0,7.66,2.64,7.66,2.64s3.21,4.91,5.53,8.39,6.18,5.85,9,5.85h41.89A5.94,5.94,0,0,0,1072.78,668.46Z" transform="translate(-665.71 -298.55)"/><path class="cls-15" d="M1015.64,645.79a.8.8,0,0,1-1-.1.58.58,0,0,1,.29-.84l5.47-3.16.26-.57,1.18,1.1-.25.14-2.24,5a.92.92,0,0,1-1,.46.5.5,0,0,1-.42-.71l1.61-3.58-3.93,2.27Zm15.82,4.84-1.1-.88-1.56,3.48a.51.51,0,0,0,.43.71.93.93,0,0,0,1-.47l1.28-2.84Zm-1.15-.92-3.83,2.2a.8.8,0,0,1-1-.09.59.59,0,0,1,.29-.84l3.59-2.07,1,.8Zm-3.78-3.24c-.5-.43-1-.87-1.45-1.29l-4.74,2.73a.59.59,0,0,0-.29.84.8.8,0,0,0,1,.1l3.93-2.26-1.61,3.57a.49.49,0,0,0,.42.71.92.92,0,0,0,1-.46Z" transform="translate(-665.71 -298.55)"/><path class="cls-36" d="M949.64,522.08a.35.35,0,0,0-.7.08s.25,1.6.3,2.11a1.06,1.06,0,0,1-.24.8,1.37,1.37,0,0,1-.82.41,2.12,2.12,0,0,1-.52,0,5.69,5.69,0,0,1-2.51-.89,4.57,4.57,0,0,1-2-2.81,6,6,0,0,1-.1-2,.33.33,0,0,0-.32-.34.34.34,0,0,0-.39.28,6.89,6.89,0,0,0,.12,2.22,5.14,5.14,0,0,0,2.24,3.19,6.45,6.45,0,0,0,2.87,1,3.23,3.23,0,0,0,.72,0,2.09,2.09,0,0,0,1.25-.64,1.66,1.66,0,0,0,.38-1.24C949.9,523.74,949.64,522.08,949.64,522.08Z" transform="translate(-665.71 -298.55)"/><path class="cls-36" d="M943,522.84a.35.35,0,0,0,.43-.23.32.32,0,0,0-.26-.38,2.37,2.37,0,0,1-1.65-1.69.36.36,0,0,0-.43-.23.32.32,0,0,0-.26.38A3.06,3.06,0,0,0,943,522.84Z" transform="translate(-665.71 -298.55)"/><path class="cls-35" d="M944,527.72a.35.35,0,0,0,.36-.32.34.34,0,0,0-.35-.32l-7.88-.06a.34.34,0,0,0-.35.32.34.34,0,0,0,.35.32Z" transform="translate(-665.71 -298.55)"/><path class="cls-35" d="M939.11,527.07a.31.31,0,0,0-.2.41.37.37,0,0,0,.46.18,3.9,3.9,0,0,0,2.33-2.28.31.31,0,0,0-.24-.39.35.35,0,0,0-.44.21A3.15,3.15,0,0,1,939.11,527.07Z" transform="translate(-665.71 -298.55)"/><path class="cls-35" d="M958.55,534.23a.33.33,0,0,0,.33-.34.34.34,0,0,0-.38-.29l-8.49.58a.33.33,0,0,0-.32.35.34.34,0,0,0,.38.29Z" transform="translate(-665.71 -298.55)"/><path class="cls-35" d="M952.25,538.84a.31.31,0,0,0,.19-.42.37.37,0,0,0-.46-.17L947.2,540a.31.31,0,0,0-.2.41.38.38,0,0,0,.47.17Z" transform="translate(-665.71 -298.55)"/><path class="cls-35" d="M942.74,545.52a.33.33,0,0,0,.37-.3.33.33,0,0,0-.34-.33l-1.88-.07a.35.35,0,0,0-.37.3.33.33,0,0,0,.34.33Z" transform="translate(-665.71 -298.55)"/><path class="cls-44" d="M966.78,518l-.2-.19a.46.46,0,0,0-.6,0l-6.2,5.16a.34.34,0,0,0,0,.52l.2.2a.45.45,0,0,0,.59,0l6.21-5.16A.35.35,0,0,0,966.78,518Z" transform="translate(-665.71 -298.55)"/><path class="cls-34" d="M823.7,634.67a.4.4,0,0,0-.28.5.47.47,0,0,0,.57.25,25.47,25.47,0,0,0,3.74-1.51,33.45,33.45,0,0,0,3.78-2.23c15.69-10.69,78.87-55.79,79.78-56.44.6-.3,8.48-4.1,15.73.43,7.72,4.82,69.88,66.52,70.06,66.7a.48.48,0,0,0,.62,0,.37.37,0,0,0,0-.56c-.18-.18-62.4-62-70.21-66.83s-16.13-.73-16.68-.45l-.09.05c-.18.13-64,45.7-79.78,56.44a30.89,30.89,0,0,1-3.67,2.16A22.68,22.68,0,0,1,823.7,634.67Z" transform="translate(-665.71 -298.55)"/><path class="cls-34" d="M1009.91,634.23a.37.37,0,0,0,.13-.55.48.48,0,0,0-.62-.12s-15.21,8.91-19.3,15a.38.38,0,0,0,.15.55.48.48,0,0,0,.61-.14C994.86,643,1009.87,634.25,1009.91,634.23Z" transform="translate(-665.71 -298.55)"/><path class="cls-34" d="M923.93,599.51a.46.46,0,0,0,.58.21.38.38,0,0,0,.24-.52,23.58,23.58,0,0,1-2.24-9.3.42.42,0,0,0-.44-.4.43.43,0,0,0-.45.4A24.55,24.55,0,0,0,923.93,599.51Z" transform="translate(-665.71 -298.55)"/><path class="cls-43" d="M915.46,558.34a.44.44,0,0,0-.54-.29.4.4,0,0,0-.32.48s3.68,11.92-17.91,22.72c-11,5.49-22.23,9-32.34,12.18s-19,6-25.36,10c-6,3.78-11.47,5.42-16.34,5.32a20.12,20.12,0,0,1-13.68-5.9c-4-3.8-13.14-19.88-20.35-36.93-5.3-12.54-9.54-25.59-9.88-34.64a.43.43,0,0,0-.46-.38.43.43,0,0,0-.43.41c.35,9.14,4.61,22.28,9.94,34.89,7.25,17.14,16.48,33.34,20.54,37.19a21,21,0,0,0,14.3,6.15c5,.11,10.7-1.57,16.87-5.46s15.14-6.73,25.14-9.86,21.46-6.72,32.48-12.23c22.19-11.11,18.35-23.58,18.34-23.61Zm-83.77,6.25c.12-1.88,1.42-23.91-4.94-44.59a.4.4,0,0,1,.31-.49.46.46,0,0,1,.55.28c6,19.7,5.21,40.6,5,44.38a1.89,1.89,0,0,1,2.44,1.69c4.68-4.27,11.51-6.48,19.51-9.07,11.05-3.59,24.35-7.9,37.1-19.38,4.6-4.15,14.6.12,14.62.13a.38.38,0,0,1,.22.53.48.48,0,0,1-.59.19s-9.47-4-13.62-.29c-12.89,11.61-26.29,15.95-37.43,19.56-8.25,2.68-15.24,4.94-19.78,9.46a8.89,8.89,0,0,0-1.34,2.87.45.45,0,0,1-.53.3.4.4,0,0,1-.34-.47,10.08,10.08,0,0,1,1.4-3.05c-.17-2.16-1.57-1.69-1.86-1.57a6.88,6.88,0,0,0-1.41,2,.45.45,0,0,1-.54.28.4.4,0,0,1-.32-.49A7.42,7.42,0,0,1,831.69,564.59Z" transform="translate(-665.71 -298.55)"/><path class="cls-35" d="M858.23,445.71a4.76,4.76,0,0,1,3.44,6.13,5.57,5.57,0,0,1-6.85,3.07,4.75,4.75,0,0,1-3.43-6.12A5.58,5.58,0,0,1,858.23,445.71Z" transform="translate(-665.71 -298.55)"/><path class="cls-34" d="M866,437a6.42,6.42,0,0,1,5.33,1.65.93.93,0,0,0,1.2.1.71.71,0,0,0,.11-1.07,8.28,8.28,0,0,0-6.85-2.19.8.8,0,0,0-.74.85A.84.84,0,0,0,866,437Z" transform="translate(-665.71 -298.55)"/><path class="cls-34" d="M867.45,441.13h0a2.25,2.25,0,0,0-1.36,0,.77.77,0,0,1-.37-.51.31.31,0,0,0-.36-.24.29.29,0,0,0-.27.32,1.25,1.25,0,0,0,.41.72h0a1.41,1.41,0,0,1-.61-.68.32.32,0,0,0-.41-.17.27.27,0,0,0-.19.36,1.87,1.87,0,0,0,.67.83h0a2,2,0,0,1-.8-.54.35.35,0,0,0-.45-.05.27.27,0,0,0,0,.4,2.31,2.31,0,0,0,.81.61l.4.19-.81,2a1.77,1.77,0,0,0,1.23,2.29h0a2.06,2.06,0,0,0,2.55-1.09l.87-2.21A1.75,1.75,0,0,0,867.45,441.13Z" transform="translate(-665.71 -298.55)"/><path class="cls-44" d="M883.1,418.74a.41.41,0,0,0-.37-.45.44.44,0,0,0-.51.33c0,.07-4,24.27-33.53,14.95a.47.47,0,0,0-.57.24.39.39,0,0,0,.27.51C878.91,444,883.08,418.81,883.1,418.74Z" transform="translate(-665.71 -298.55)"/><path class="cls-37" d="M849.05,435.49c-.74-13.39-20.65-2.36-9.38,8.32C839.67,443.81,847.72,443.26,849.05,435.49Z" transform="translate(-665.71 -298.55)"/><path class="cls-35" d="M848.61,435.51a.43.43,0,0,0,.46.38.41.41,0,0,0,.42-.42c-.19-3.45-1.63-5.38-3.51-6.15a6.64,6.64,0,0,0-5.35.39,8.88,8.88,0,0,0-4.12,4.09c-1.36,2.85-1,6.6,2.84,10.28a.47.47,0,0,0,.62,0,.38.38,0,0,0,0-.57c-3.59-3.4-3.9-6.83-2.67-9.41a8,8,0,0,1,3.73-3.71,5.71,5.71,0,0,1,4.56-.37C847.21,430.7,848.44,432.4,848.61,435.51Z" transform="translate(-665.71 -298.55)"/><path class="cls-44" d="M813.42,410.49a.38.38,0,0,0-.24-.52.46.46,0,0,0-.58.21c0,.05-8.54,18.31-21.59,25.62a149.07,149.07,0,0,1-14.29,6.59c-10.69,4.49-21.32,9-24.26,15.82a.39.39,0,0,0,.26.51.45.45,0,0,0,.57-.23c2.81-6.56,13.28-11,23.81-15.39a146.13,146.13,0,0,0,14.37-6.63C804.77,429,813.39,410.54,813.42,410.49Z" transform="translate(-665.71 -298.55)"/><path class="cls-48" d="M881.87,408.55a20.27,20.27,0,0,0-3.09-3.27,51.74,51.74,0,0,0-7.62-5.41c-17.74,17.87-43.81,15.66-59.81,11.95-.5.93-1,1.86-1.42,2.8C854.73,429.6,874.28,417.11,881.87,408.55Z" transform="translate(-665.71 -298.55)"/><path class="cls-49" d="M925,478.25c-1.91-8.61-7.69-14-12.57-13.7-6.5.42-9.43,10.87-9.72,11.92-3.77,14.06,8.68,27.29,10.46,29.13.79,0,19.33.58,25.84-11.71,3.14-5.94,4.16-16.14-.91-19C934.85,473,929.65,474.64,925,478.25Z" transform="translate(-665.71 -298.55)"/><path class="cls-49" d="M951,420.14c-10.63-9.84-23.26-11.63-29.31-6.51-8.05,6.82-2,23.8-1.36,25.5,8.39,22.68,37.09,28.67,41.14,29.46,1.07-.73,25.7-17.79,22.54-40.71-1.52-11.06-9.85-25.87-19.15-24.88C958.86,403.64,953.62,410.81,951,420.14Z" transform="translate(-665.71 -298.55)"/><path class="cls-13" d="M1192.62,676.64H744.75c-4.61,0-8.38,3.46-8.38,7.69h0c0,4.23,3.77,7.7,8.38,7.7H773a4.48,4.48,0,0,1,4.65,4.27h0a4.49,4.49,0,0,1-4.65,4.28H762.68a5.61,5.61,0,0,0-5.82,5.34h0a5.62,5.62,0,0,0,5.82,5.34h411.08a5.61,5.61,0,0,0,5.82-5.34h0a5.61,5.61,0,0,0-5.82-5.34h-8.14a4.49,4.49,0,0,1-4.66-4.28h0a4.49,4.49,0,0,1,4.66-4.27h27c4.61,0,8.38-3.46,8.38-7.7h0c0-4.23-3.77-7.69-8.38-7.69Zm2.4,34.62c-3.24,0-5.89-2.31-5.89-5.13v-.43c0-2.82,2.65-5.12,5.89-5.12h0c3.24,0,5.9,2.3,5.9,5.12v.43c0,2.82-2.66,5.13-5.9,5.13Z" transform="translate(-665.71 -298.55)"/></svg>