<svg id="Layer_1" data-name="Layer 1" xmlns="http://www.w3.org/2000/svg" xmlns:xlink="http://www.w3.org/1999/xlink" viewBox="0 0 589.48 412.45"><defs><style>.cls-1{fill:none;clip-rule:evenodd;}.cls-2{fill:#f8b595;}.cls-2,.cls-8{opacity:0.4;}.cls-11,.cls-2,.cls-9{isolation:isolate;}.cls-3{opacity:0.7;}.cls-29,.cls-4,.cls-49,.cls-9{fill:#f67280;}.cls-5{fill:#8e1c2f;}.cls-26,.cls-6{fill:#bd263e;}.cls-7{fill:#2f0a10;}.cls-11,.cls-9{opacity:0.1;}.cls-10{fill:#3f3d56;}.cls-12{fill:#350a3d;}.cls-12,.cls-13,.cls-14,.cls-15,.cls-16,.cls-17,.cls-18,.cls-19,.cls-20,.cls-21,.cls-22,.cls-23,.cls-24,.cls-25,.cls-26,.cls-27,.cls-29,.cls-30,.cls-31,.cls-32,.cls-33,.cls-34,.cls-35,.cls-36,.cls-37,.cls-38,.cls-39,.cls-40,.cls-41,.cls-42,.cls-43,.cls-44,.cls-45,.cls-46,.cls-47,.cls-48,.cls-49{fill-rule:evenodd;}.cls-13{fill:#cb6459;}.cls-14{fill:#b24949;}.cls-15{fill:#e6ad83;}.cls-16{fill:#b02539;}.cls-17{fill:#ecd8da;}.cls-18{fill:#df9aa3;}.cls-19{fill:#c73048;}.cls-20{fill:#cf4a60;}.cls-21{fill:#d4a037;}.cls-22{fill:#472055;}.cls-23{fill:#f3ce63;}.cls-24,.cls-30{fill:#fff;}.cls-25{fill:#f2dbdf;}.cls-27{fill:#542763;}.cls-28{clip-path:url(#clip-path);}.cls-30{opacity:0.29;}.cls-31{fill:#fadcc2;}.cls-32{fill:#fceadd;}.cls-33{fill:#be8d76;}.cls-34{fill:#0f1630;}.cls-35{fill:#01020e;}.cls-36{fill:#000618;}.cls-37{fill:#36425e;}.cls-38{fill:#202e4b;}.cls-39{fill:#e8685b;}.cls-40{fill:#f4ad85;}.cls-41{fill:#ef8871;}.cls-42{fill:#be2a34;}.cls-43{fill:#18233d;}.cls-44{fill:#030a1f;}.cls-45{fill:#fbdfcc;}.cls-46{fill:#494c5c;}.cls-47{fill:url(#radial-gradient);}.cls-48{fill:url(#radial-gradient-2);}.cls-49{opacity:0.92;}</style><clipPath id="clip-path" transform="translate(-660.71 -334.55)"><path class="cls-1" d="M1103.53,439.7c-16.47-42.74-50-65.27-74.4-59-32.52,8.32-39.07,65.13-39.67,70.83-7.93,76.27,65.47,133,75.91,140.78,4.07-.58,98.22-15.25,121.39-85,11.18-33.65,8.24-87.37-19.65-97.38C1149,403.46,1124,416.66,1103.53,439.7Z"/></clipPath><radialGradient id="radial-gradient" cx="1656.4" cy="-35.86" r="154.37" gradientTransform="matrix(0.62, 0.17, -0.19, 0.67, 56.69, 234.83)" gradientUnits="userSpaceOnUse"><stop offset="0" stop-color="#fff" stop-opacity="0"/><stop offset="0.11" stop-color="#fffdfd" stop-opacity="0.01"/><stop offset="0.21" stop-color="#fef7f8" stop-opacity="0.06"/><stop offset="0.3" stop-color="#feedef" stop-opacity="0.13"/><stop offset="0.38" stop-color="#fddee2" stop-opacity="0.23"/><stop offset="0.47" stop-color="#fcccd1" stop-opacity="0.36"/><stop offset="0.55" stop-color="#fab5bc" stop-opacity="0.53"/><stop offset="0.63" stop-color="#f99aa4" stop-opacity="0.72"/><stop offset="0.71" stop-color="#f77b88" stop-opacity="0.93"/><stop offset="0.73" stop-color="#f67280"/><stop offset="0.96" stop-color="#f67280"/><stop offset="1" stop-color="#f67280"/></radialGradient><radialGradient id="radial-gradient-2" cx="1656.29" cy="-36.62" r="154.37" gradientTransform="matrix(0.62, 0.17, -0.19, 0.67, 56.69, 234.83)" gradientUnits="userSpaceOnUse"><stop offset="0" stop-color="#fff" stop-opacity="0"/><stop offset="0.22" stop-color="#fff" stop-opacity="0.01"/><stop offset="0.41" stop-color="#fff" stop-opacity="0.06"/><stop offset="0.59" stop-color="#fff" stop-opacity="0.12"/><stop offset="0.73" stop-color="#fff" stop-opacity="0.2"/><stop offset="0.89" stop-color="#fff" stop-opacity="0.19"/><stop offset="0.95" stop-color="#fff" stop-opacity="0.17"/><stop offset="0.99" stop-color="#fff" stop-opacity="0.12"/><stop offset="1" stop-color="#fff" stop-opacity="0.1"/></radialGradient></defs><title>lc small screen</title><path class="cls-2" d="M1235,724.06c1.9-32.72-17.24-51.76-39.33-73.19-20.59-20-16.27-54.65-7.65-77.49,8.34-22.11,22.59-40.71,36.51-59.14,9.45-12.54,19-25.47,23.26-41.12,10.31-37.83-14.22-82.88-48.64-106.87s-76-30.71-115.39-31.59c-89.7-2-175.78,22.73-252.08,62.73-27.32,14.35-53.7,30.74-75.56,52.42-30.66,30.4-51.42,70.17-67,111.78-8.76,23.41-16,47.82-17.71,73.61-1.53,23.68,2.32,48,10.48,71.3A110.67,110.67,0,0,0,707.14,747h520.4A44.63,44.63,0,0,0,1235,724.06Z" transform="translate(-660.71 -334.55)"/><g class="cls-3"><path class="cls-4" d="M772.7,698s10.94-3.38,19.1,2.57c0,0-4.27,4.25-15.87,1.17Z" transform="translate(-660.71 -334.55)"/><path class="cls-4" d="M771.47,698s-5.62,9-.37,17.11c0,0,5.4-3,4-13.66Z" transform="translate(-660.71 -334.55)"/><path class="cls-4" d="M762.45,686.18s3.06-8,23.09-.67c0,0-1.42,5.3-9.45,6.16S765.32,689.69,762.45,686.18Z" transform="translate(-660.71 -334.55)"/><path class="cls-4" d="M761.19,685.83s-9.52.55-6.67,19.61a10.36,10.36,0,0,0,9.16-6.51C766.69,692.27,764.29,689.19,761.19,685.83Z" transform="translate(-660.71 -334.55)"/><path class="cls-4" d="M752.75,671.58s2.68-13.7,23.56-7.59c0,0-2,12.51-20.74,11.67Z" transform="translate(-660.71 -334.55)"/><path class="cls-4" d="M743.06,653.25s7.31-14.58,27.27-5.31c0,0-3.71,13.2-24.85,9.72Z" transform="translate(-660.71 -334.55)"/><path class="cls-4" d="M737.31,635.29s9.17-13.8,29-4.62c0,0-8.88,12.25-28.35,7.68Z" transform="translate(-660.71 -334.55)"/><path class="cls-4" d="M732,617.78s9.22-14.35,28.23-5.18c0,0-11,13.12-27.64,8.11Z" transform="translate(-660.71 -334.55)"/><path class="cls-4" d="M729.87,601.81s9.1-18,26.87-9.62c0,0-10.45,15.91-26.27,12.67Z" transform="translate(-660.71 -334.55)"/><path class="cls-4" d="M729.05,582.9s9.87-18,27.46-8.22c0,0-12.7,16.27-26.88,11.14Z" transform="translate(-660.71 -334.55)"/><path class="cls-4" d="M730.12,565.7s12.43-17.44,27.16-13.61c0,0-12.94,18.47-27,17.7Z" transform="translate(-660.71 -334.55)"/><path class="cls-4" d="M732.44,549.2s14.19-21.17,25.78-16.71c0,0-10.31,16.3-26.38,20.37Z" transform="translate(-660.71 -334.55)"/><path class="cls-4" d="M736.58,529.82s12.63-17.47,24.77-15.57c0,0-10.26,17.67-25.93,20.58Z" transform="translate(-660.71 -334.55)"/><path class="cls-4" d="M740.26,511.72s14.4-17.1,22.4-15.76c0,0-9.28,17.92-22.52,19.07Z" transform="translate(-660.71 -334.55)"/><path class="cls-4" d="M744,495s11.45-19.46,19.81-19.46c0,0-6,16.7-19.46,21.19Z" transform="translate(-660.71 -334.55)"/><path class="cls-4" d="M747.32,472.63s10.52-15.22,17.62-16.35c0,0-6.88,19.19-17.31,20.69Z" transform="translate(-660.71 -334.55)"/><path class="cls-4" d="M749,457.85l7.24-29.38s5.56,24.62-7.84,34.68Z" transform="translate(-660.71 -334.55)"/><path class="cls-4" d="M748.1,426.86s-2.45-23.17-4.16-24.85c0,0,12.85,17.55,6.09,34.93Z" transform="translate(-660.71 -334.55)"/><path class="cls-4" d="M752.19,671.38s-14.6-5.12-19.58,13.9c0,0,13.07,5,22-9.64Z" transform="translate(-660.71 -334.55)"/><path class="cls-4" d="M742.49,652.61s-17.42-3.93-21.58,15.74c0,0,14,5.58,24-11.31Z" transform="translate(-660.71 -334.55)"/><path class="cls-4" d="M736.78,636.51s-13.93-10.12-29,4.61c0,0,13,8.75,29.57-1.56Z" transform="translate(-660.71 -334.55)"/><path class="cls-4" d="M731.57,617.84s-14.19-10.61-28.49,3.86c0,0,15.4,8.92,29.07-.93Z" transform="translate(-660.71 -334.55)"/><path class="cls-4" d="M730,602.27s-11.8-16.7-28.1-6.11c0,0,12.81,14.43,28,9.21Z" transform="translate(-660.71 -334.55)"/><path class="cls-4" d="M730.06,582.64s-11.81-17-28.22-5.63c0,0,14.43,15,28,8.59Z" transform="translate(-660.71 -334.55)"/><path class="cls-4" d="M731.86,565.52s-7.22-19.56-22.54-18.95c0,0,7.4,20.67,21.27,22.92Z" transform="translate(-660.71 -334.55)"/><path class="cls-4" d="M732.78,549.18s-6.06-24-18.63-22.85c0,0,4.07,18.29,17.92,26.49Z" transform="translate(-660.71 -334.55)"/><path class="cls-4" d="M737.73,528.92s-7.7-19.52-20-20.1c0,0,5.35,19.25,19.84,25.21Z" transform="translate(-660.71 -334.55)"/><path class="cls-4" d="M741.7,511.64s-4.3-20.92-12.15-22.85c0,0-.71,19.67,10.58,25.87Z" transform="translate(-660.71 -334.55)"/><path class="cls-4" d="M744.55,494.63s-5.31-21.42-13.41-23.26c0,0,.84,17.48,12.57,24.85Z" transform="translate(-660.71 -334.55)"/><path class="cls-4" d="M748.72,474.18s-3.54-17.53-9.71-20.8c0,0-1.5,20.07,7.64,24.8Z" transform="translate(-660.71 -334.55)"/><path class="cls-4" d="M748.16,457.06l-11-28.38s-2.33,25.06,12.32,33.61Z" transform="translate(-660.71 -334.55)"/><path class="cls-4" d="M743.4,427.9S726.13,410.39,726,408.15c0,0,5.52,20.36,24.36,27.94Z" transform="translate(-660.71 -334.55)"/><path class="cls-4" d="M743.81,421.86S725.65,396,719.5,394.62c0,0,19.61,5.24,25.2,26.27Z" transform="translate(-660.71 -334.55)"/><path class="cls-5" d="M747.6,477.16l-.91-.1c4.52-32.39,3.28-52.41-3.52-56.37l.51-.67C750.89,424.22,752.23,444,747.6,477.16Z" transform="translate(-660.71 -334.55)"/><path class="cls-5" d="M732.63,553.75l-1.36-.2c.57-3,1.22-6,1.93-9.06,6.23-26.26,11.15-50.55,13.72-69l1-.67c-2.59,18.52-7.16,43.63-13.39,69.93C733.83,547.7,733.19,550.73,732.63,553.75Z" transform="translate(-660.71 -334.55)"/><path class="cls-5" d="M793.13,718.42c-.21-.14-20.87-14.57-38.77-42a163.39,163.39,0,0,1-22.26-51.63c-5.37-22.7-5-49-.38-73.67l1.22.88c-10.45,55.28,6.69,98.5,23,123.55,17.66,27.17,38.1,41.45,38.31,41.59Z" transform="translate(-660.71 -334.55)"/></g><g class="cls-3"><path class="cls-6" d="M776.3,717.83s10.8-6,20.53.17c0,0-3.63,6-16.41,4Z" transform="translate(-660.71 -334.55)"/><path class="cls-6" d="M775,718.07s-4.11,12.12,3,21.43c0,0,5.07-4.61,1.47-17.7Z" transform="translate(-660.71 -334.55)"/><path class="cls-6" d="M763.23,704.74s1.62-10.5,24.08-4.52c0,0-.44,6.85-8.7,9.21S766.93,708.67,763.23,704.74Z" transform="translate(-660.71 -334.55)"/><path class="cls-6" d="M761.84,704.52s-9.88,2.2-3.13,25.55c0,0,6.47-.8,8.32-9.6S765.75,708.22,761.84,704.52Z" transform="translate(-660.71 -334.55)"/><path class="cls-6" d="M750.18,688.07s.11-17.55,23.2-13.25c0,0,.38,15.94-19.44,17.88Z" transform="translate(-660.71 -334.55)"/><path class="cls-6" d="M736.41,666.71s4.78-19.37,27.54-11c0,0-1.29,17.08-24.14,16.11Z" transform="translate(-660.71 -334.55)"/><path class="cls-6" d="M726.83,645.21s6.9-18.71,29.46-10.39c0,0-6.9,16.7-28.21,14.1Z" transform="translate(-660.71 -334.55)"/><path class="cls-6" d="M717.77,624.19s6.84-19.4,28.58-11c0,0-9,18.15-27.38,14.54Z" transform="translate(-660.71 -334.55)"/><path class="cls-6" d="M712.43,604.58s6-24,26.28-16.31c0,0-7.82,21.54-25,20Z" transform="translate(-660.71 -334.55)"/><path class="cls-6" d="M707.84,581.09S714.64,557,735,566.45c0,0-10.11,22.35-26,18.2Z" transform="translate(-660.71 -334.55)"/><path class="cls-6" d="M705.57,559.45s9.6-23.77,25.8-21.35c0,0-9.93,25.13-24.85,26.43Z" transform="translate(-660.71 -334.55)"/><path class="cls-6" d="M704.75,538.46s10.71-28.71,23.74-25c0,0-7.6,22-23.64,29.66Z" transform="translate(-660.71 -334.55)"/><path class="cls-6" d="M705.27,513.6s9.81-23.83,22.91-23.4c0,0-7.27,23.7-23.13,29.84Z" transform="translate(-660.71 -334.55)"/><path class="cls-6" d="M705.57,490.41s11.72-23.66,20.38-23.26c0,0-6.2,23.86-19.86,27.4Z" transform="translate(-660.71 -334.55)"/><path class="cls-6" d="M706.23,468.86s8.16-26.14,16.93-27.47c0,0-3,21.81-16.23,29.58Z" transform="translate(-660.71 -334.55)"/><path class="cls-6" d="M705.26,440.46s8-20.69,15.25-23.23c0,0-3.42,25.06-14.06,28.6Z" transform="translate(-660.71 -334.55)"/><path class="cls-6" d="M704.07,421.74l1.79-37.86s10.69,29.87-1.38,44.57Z" transform="translate(-660.71 -334.55)"/><path class="cls-6" d="M697.06,383.17s-7.14-28.55-9.27-30.37c0,0,16.93,19.87,13.28,42.66Z" transform="translate(-660.71 -334.55)"/><path class="cls-6" d="M749.55,687.9s-16.32-4.06-17.79,20.48c0,0,14.69,4.17,21.19-15.55Z" transform="translate(-660.71 -334.55)"/><path class="cls-6" d="M735.68,666s-19-2.13-19.53,23.1c0,0,15.75,4.74,22.92-18Z" transform="translate(-660.71 -334.55)"/><path class="cls-6" d="M726.52,646.81s-16.61-10.41-29.47,10.39c0,0,15.4,8.84,30.7-6.68Z" transform="translate(-660.71 -334.55)"/><path class="cls-6" d="M717.38,624.33s-17-11-29.12,9.36c0,0,17.91,8.69,30.3-5.8Z" transform="translate(-660.71 -334.55)"/><path class="cls-6" d="M712.62,605.14S697,586.17,682,602c0,0,16.28,16,31.14,7Z" transform="translate(-660.71 -334.55)"/><path class="cls-6" d="M708.85,580.61s-15.73-19.36-30.7-2.53c0,0,18.09,16.49,31,6.26Z" transform="translate(-660.71 -334.55)"/><path class="cls-6" d="M707.37,558.93S695.94,535.66,680,538.87c0,0,11.84,24.64,26.83,25.23Z" transform="translate(-660.71 -334.55)"/><path class="cls-6" d="M705.11,538.38s-11.09-29-24.05-25.56c0,0,7.88,22.19,24,30.23Z" transform="translate(-660.71 -334.55)"/><path class="cls-6" d="M706.31,512.29s-11.93-23.15-25-21.9c0,0,9.41,23.18,25.78,28.32Z" transform="translate(-660.71 -334.55)"/><path class="cls-6" d="M707.06,490.08s-8.63-25.45-17.25-26.61c0,0,3.14,24.69,16.2,30.62Z" transform="translate(-660.71 -334.55)"/><path class="cls-6" d="M706.69,468.38s-9.79-25.9-18.64-26.91c0,0,4.33,21.7,18.08,29Z" transform="translate(-660.71 -334.55)"/><path class="cls-6" d="M707,442.18s-7.16-21.33-14.27-24.44c0,0,2.37,25.31,12.9,29.75Z" transform="translate(-660.71 -334.55)"/><path class="cls-6" d="M703.07,420.88l-17.14-33.69s2.49,31.68,19.53,40Z" transform="translate(-660.71 -334.55)"/><path class="cls-6" d="M692.33,385.22s-21.55-19.11-22.16-21.88c0,0,9.79,24.54,31.05,31Z" transform="translate(-660.71 -334.55)"/><path class="cls-6" d="M691.57,377.61s-24.14-29.43-30.86-30.13c0,0,21.6,3.4,31.6,28.77Z" transform="translate(-660.71 -334.55)"/><path class="cls-7" d="M706.45,446.07l-1,0c-1.65-41.17-6.9-66-14.81-69.83l.4-.93C699.46,379.43,704.77,403.9,706.45,446.07Z" transform="translate(-660.71 -334.55)"/><path class="cls-7" d="M705.85,544.11l-1.46,0c0-3.82.08-7.73.23-11.63,1.36-33.78,1.73-64.9.79-88.37l.93-1c.94,23.55,1.09,55.64-.25,89.47C705.92,536.37,705.84,540.26,705.85,544.11Z" transform="translate(-660.71 -334.55)"/><path class="cls-7" d="M801.75,740.12c-.24-.15-24.75-14.87-48.93-46.27a229.83,229.83,0,0,1-33.52-60.93c-10.11-27.49-15-60.45-14.92-91.95l1.45.91c-.06,70.71,26.43,121.94,48.47,150.64,23.87,31.11,48.12,45.68,48.37,45.82Z" transform="translate(-660.71 -334.55)"/></g><g class="cls-8"><ellipse class="cls-4" cx="1146.46" cy="675.2" rx="8.82" ry="6.73" transform="translate(-566.53 1154.88) rotate(-68.23)"/><path class="cls-4" d="M1197.22,616.09a32.25,32.25,0,0,1-14.79,37,32.27,32.27,0,1,1-47.1-18.81,32.32,32.32,0,0,1,6.41-30.06l19.7,16.72-16.91-19.6a32.65,32.65,0,0,1,5.6-4.11,31.68,31.68,0,0,1-1-4.52,32.27,32.27,0,1,1,63.87-9.24l-28.45,7.36,28.78-2.84a32.3,32.3,0,0,1-10,23.51l-17.72-7.23,15.36,9.29a34,34,0,0,1-3.7,2.47Z" transform="translate(-660.71 -334.55)"/><path class="cls-9" d="M1182.43,653.12a32.26,32.26,0,1,1-47.1-18.81,32.17,32.17,0,0,1,1-21.08C1137.66,609.86,1188.48,649.62,1182.43,653.12Z" transform="translate(-660.71 -334.55)"/></g><g class="cls-8"><ellipse class="cls-4" cx="794.99" cy="606.4" rx="14.17" ry="18.25" transform="translate(-810.72 -54.81) rotate(-18.27)"/><path class="cls-4" d="M701.76,472.9a71.59,71.59,0,0,1-7.22-6L729,451.85l-39,10.27a65.81,65.81,0,0,1-15.73-50.52l60,13.09-58.2-22.23c9.45-35.34,46.73-56.15,83.27-46.48s58.51,46.16,49.07,81.5a63.38,63.38,0,0,1-3.14,9,68.63,68.63,0,0,1,10.84,9.79L776,492l45.34-29.13a65,65,0,0,1,6.54,63c30.42,22.1,37,63.71,14.62,92.93s-65.12,35-95.54,12.89c-25.43-18.48-34.77-51.28-22.59-79.37-25.41-18.48-34.74-51.26-22.58-79.33Z" transform="translate(-660.71 -334.55)"/><path class="cls-9" d="M830.65,482.52a64.08,64.08,0,0,1-2.79,43.27c30.42,22.1,37,63.71,14.63,92.93s-65.12,35-95.54,12.89c-25.43-18.48-34.77-51.28-22.6-79.37C712.42,543.57,828.6,475.31,830.65,482.52Z" transform="translate(-660.71 -334.55)"/></g><ellipse class="cls-4" cx="496.29" cy="391.47" rx="37.34" ry="7.18"/><ellipse class="cls-10" cx="495.66" cy="388.43" rx="4.35" ry="5.69"/><ellipse class="cls-10" cx="495.66" cy="381.47" rx="4.35" ry="5.69"/><ellipse class="cls-10" cx="495.66" cy="374.51" rx="4.35" ry="5.69"/><ellipse class="cls-10" cx="495.66" cy="367.56" rx="4.35" ry="5.69"/><ellipse class="cls-10" cx="495.66" cy="360.6" rx="4.35" ry="5.69"/><ellipse class="cls-10" cx="495.66" cy="353.64" rx="4.35" ry="5.69"/><ellipse class="cls-10" cx="495.66" cy="346.69" rx="4.35" ry="5.69"/><path class="cls-4" d="M1172.66,633.64a22.79,22.79,0,0,0,1.62-2.39l-11.42-1.88,12.35.09a20.74,20.74,0,0,0,.4-16.49L1159,621.56l15.29-11.23a20.83,20.83,0,1,0-36,21,22.36,22.36,0,0,0,1.57,2.31,20.59,20.59,0,0,0-2.37,3.79l14.83,7.73-15.82-5.32a20.9,20.9,0,0,0,3.32,19.57,20.82,20.82,0,1,0,32.74,0,20.86,20.86,0,0,0,0-25.75Z" transform="translate(-660.71 -334.55)"/><path class="cls-11" d="M1135.47,646.51a20.77,20.77,0,0,0,4.42,12.88,20.82,20.82,0,1,0,32.74,0C1175.45,655.84,1135.47,644.16,1135.47,646.51Z" transform="translate(-660.71 -334.55)"/><path class="cls-12" d="M870.94,510.53a.36.36,0,0,0,0-.56.46.46,0,0,0-.62,0c-.12.11-41.49,38.19,5.89,80.59a.5.5,0,0,0,.63,0,.38.38,0,0,0,0-.57C830.05,548.16,870.82,510.64,870.94,510.53Z" transform="translate(-660.71 -334.55)"/><path class="cls-12" d="M874.74,452.5C896.8,469,886.05,499.1,868.15,515c-20.71,18.37-28.25,47.78,8.47,70.24s-20.24,41.24-42.36,16.33S804,516.17,805.54,501.1s.94-21.64,13.65-28.18S874.74,452.5,874.74,452.5Z" transform="translate(-660.71 -334.55)"/><path class="cls-13" d="M929.82,558.7s3.17-3.79,3.82-4.37,4.88-.69,7.41-.85a2.73,2.73,0,0,1,3.06,2.74c.06.84.18,1.9.18,1.9s14.57,1.08,15.63,1.29,2.47,3.84,2.76,4.58-.26,2.42-1.35,2.5a3.8,3.8,0,0,1-2.92-1.13c-.44-.63-.82.23-.82.23a7.63,7.63,0,0,1,1.18,2.9,1.91,1.91,0,0,1-1.33,2.26,17.22,17.22,0,0,1-2.79.72,9.45,9.45,0,0,1-.44,2.73c-.38.74-.5,1.06-2.18,1.5s-7.59,1.69-7.59,1.69Z" transform="translate(-660.71 -334.55)"/><path class="cls-14" d="M954.71,571.78a.33.33,0,0,0,.29-.37.35.35,0,0,0-.4-.26l-2.85.41a.32.32,0,0,0-.29.36.35.35,0,0,0,.41.26Z" transform="translate(-660.71 -334.55)"/><path class="cls-12" d="M801.17,686.45s3.76,26.19,28.24,26.19H857c10.12,0,33.42-23.24,51.31-43.46s26.38-34.53,26.38-34.53c4.32,6.58,50.56,39.61,61.39,48.22,2.12,1.69,11.31,11.27,13,11.27,0,0,12.24.74,21.42-4.95,0,0-2.92-11.11-3.53-11.79-27.53-30.76-58.2-65.37-73.41-79.13s-30.79-6.17-66.1,16.16S801.17,686.45,801.17,686.45Z" transform="translate(-660.71 -334.55)"/><path class="cls-12" d="M965.54,551.47l-.86-.83a1.94,1.94,0,0,0-2.52-.08l-26.44,22a1.48,1.48,0,0,0-.09,2.25l.86.83a1.94,1.94,0,0,0,2.52.08l26.44-22A1.48,1.48,0,0,0,965.54,551.47Z" transform="translate(-660.71 -334.55)"/><path class="cls-15" d="M909.11,571.25s3.23-1.32,4.34-2,9.71-10.37,10.83-10.8a81.24,81.24,0,0,1,10-1.15,4.32,4.32,0,0,1,3.3,2,37.86,37.86,0,0,1,1.41,4l14.43.32,3.3-2.74a4.29,4.29,0,0,1,1.69,1c.47.61.5,2.43.44,3.35s-2,3.18-2.5,3.68a6.11,6.11,0,0,1-2.83.92,3.17,3.17,0,0,1-2,2.93c-2,.73-4.45,1.71-4.45,1.71a3.56,3.56,0,0,1-1.58,2.68c-1.48.84-5.42,3.53-5.42,3.53a7.8,7.8,0,0,1-2.35.45,6.6,6.6,0,0,1-2.94,2.81c-1.83.69-8.42,3.27-9.36,3.48s-4.6-.39-8.19,1.47a32.51,32.51,0,0,1-4,1.95l-6.7-16.53Z" transform="translate(-660.71 -334.55)"/><path class="cls-16" d="M1026.7,710.28s54.47,1.16,56.58-2.32v-4.65c0-1.86-2.49-4.53-9.26-6.27s-21.22-5.12-25.66-6.33-17.15-13.65-19-15.16-10.23,3.37-12,4.18-.6,2.79.3,5.11S1026.7,710.28,1026.7,710.28Z" transform="translate(-660.71 -334.55)"/><path class="cls-17" d="M1083.28,712.64H996.15c-1,0-1.88-.43-1.88-1v-2.76c0-.53.84-1,1.88-1h87.13c1,0,1.88.43,1.88,1v2.76C1085.16,712.21,1084.31,712.64,1083.28,712.64Z" transform="translate(-660.71 -334.55)"/><path class="cls-18" d="M1083.28,712.64h-29.61c-1,0-1.88-.43-1.88-1v-2.76c0-.53.85-1,1.88-1h29.61c1,0,1.88.43,1.88,1v2.76C1085.16,712.21,1084.31,712.64,1083.28,712.64Z" transform="translate(-660.71 -334.55)"/><path class="cls-16" d="M1044.75,692.22c-.3.81-3,4.88-1.13,5.86s7.9,4.53,11.29,4.53h19.49c8.95,0,6.88-2.41,6.88-2.41,1.4,1.1,2,2.2,2,3.11V708H996.15s-3.69-3.31-3.69-11.1-.49-12.25,1-13.5,2.48-.61,2.48-.61c6.77,4.53,15,1.27,19.27-.52l1.3-.58c3.48-1.61,5.61-3,8.7-1.69,3.46,1.51,15.65,8.19,17.61,9.24S1045.05,691.4,1044.75,692.22Z" transform="translate(-660.71 -334.55)"/><path class="cls-19" d="M1083.28,704.46V708H996.15s-3.69-3.31-3.69-11.1-.49-12.25,1-13.5a4.74,4.74,0,0,0,4.53,5.28h17.36c6.37,0,7.66,2.64,7.66,2.64s3.21,4.91,5.53,8.39,6.18,5.85,9,5.85h41.89A5.94,5.94,0,0,0,1083.28,704.46Z" transform="translate(-660.71 -334.55)"/><path class="cls-20" d="M1026.14,681.79a.8.8,0,0,1-1-.1.58.58,0,0,1,.29-.84l5.47-3.16.26-.57,1.18,1.1-.25.14-2.24,5a.92.92,0,0,1-1,.46.5.5,0,0,1-.42-.71l1.61-3.58-3.93,2.27Zm15.81,4.84-1.09-.88-1.56,3.48a.5.5,0,0,0,.43.71.93.93,0,0,0,1-.47l1.27-2.84Zm-1.14-.92-3.83,2.2a.78.78,0,0,1-1-.09.57.57,0,0,1,.28-.84l3.59-2.07,1,.8Zm-3.78-3.24c-.5-.43-1-.87-1.45-1.29l-4.74,2.73c-.36.21-.49.59-.29.84a.8.8,0,0,0,1,.1l3.93-2.26-1.61,3.57a.49.49,0,0,0,.42.71.92.92,0,0,0,1-.46Z" transform="translate(-660.71 -334.55)"/><path class="cls-21" d="M901.09,573.9l5.65-2.89a3.79,3.79,0,0,1,2,.11s1.41,13,8.18,17.85a1.44,1.44,0,0,1-.33,1.26c-.5.42-6.56,4.2-6.56,4.2a8.09,8.09,0,0,1-4.88-1c-2.35-1.37-7.65-10.48-7.53-11.64S901.09,573.9,901.09,573.9Z" transform="translate(-660.71 -334.55)"/><path class="cls-22" d="M785.67,686.45s3.76,26.19,28.24,26.19h27.54c10.12,0,33.42-23.24,51.31-43.46s26.38-34.53,26.38-34.53c4.32,6.58,50.56,39.61,61.39,48.22,2.12,1.69,11.31,11.27,13,11.27,0,0,12.24.74,21.42-4.95,0,0-2.92-11.11-3.53-11.79C983.85,646.64,953.18,612,938,598.27s-30.79-6.17-66.1,16.16S785.67,686.45,785.67,686.45Z" transform="translate(-660.71 -334.55)"/><path class="cls-21" d="M839.09,554.19l2.42-1.83S854.86,578.2,857.68,593,848,606,848,606s-8.94-4.63-9.17-10.53S839.09,554.19,839.09,554.19Z" transform="translate(-660.71 -334.55)"/><path class="cls-15" d="M825.43,466.25s-13.07,18.49-32.75,26c0,0-2.26,12.82,7.52,18.27s24.82,1,24.82,1L835,498.47Z" transform="translate(-660.71 -334.55)"/><path class="cls-13" d="M832.6,501.56l1.57-2.07c-1.34-4.91-3.66-13.48-3.66-14.08,0-.84-6.24-8.85-6.24-8.85l-5.06.11.12,17.8Z" transform="translate(-660.71 -334.55)"/><path class="cls-23" d="M777.06,524.09S739.4,584,773.29,674c0,0,3.53,8,3.06,14.74s25.42,10.32,37-7.58,3.76-17.27,16.47-28.43,32.71-24.86,32.71-24.86-5.4-8.84-16.23-10.53c0,0,0-5.68-3.65-6.84,0,0,6-19.38,5.53-32.64s-8.94-36-23.3-52.87c0,0-1.76-4.95.48-8.74s2.58-5.26,1.52-7.16a15.81,15.81,0,0,1-7.76-2.32c-3.53-2.31-12.36-2.52-12.36-2.52Z" transform="translate(-660.71 -334.55)"/><path class="cls-21" d="M789.19,694.28c8.07-.22,18.07-3.69,24.12-13.08,11.53-17.9,3.76-17.27,16.47-28.43s32.71-24.86,32.71-24.86-5.4-8.84-16.23-10.53c0,0,0-5.68-3.65-6.84l.09-.29-28.44,9-30.13-39.59-5,12.15s20.5,56.08,24.73,67.88C807.75,670.35,808.49,685.58,789.19,694.28Z" transform="translate(-660.71 -334.55)"/><path class="cls-23" d="M822.18,555.89c6.66,21.67,4.94,44.86,4.94,44.86s2.41-1.21,2.59,2c10.77-10.76,34.82-8.86,57.25-29.06,4.38-4,14.13.21,14.13.21s-2.36,11.69,8.94,20.53c0,0,3.77,12.22-18.12,23.17s-45,14.11-57.66,22.11-23.07,6.53-30.6-.63-33.19-57.49-30.13-76.45C778.6,531.17,815.52,534.23,822.18,555.89Z" transform="translate(-660.71 -334.55)"/><path class="cls-24" d="M825.92,573.13q.45,3.25.73,6.32A188.51,188.51,0,0,0,779,591.24q-1.11-3.12-2.06-6.14a197.7,197.7,0,0,1,49-12Zm1.16,12.06A198.24,198.24,0,0,0,781,596.61c.79,2,1.61,4,2.45,6a189.24,189.24,0,0,1,43.85-11C827.28,589.66,827.21,587.52,827.08,585.19Z" transform="translate(-660.71 -334.55)"/><path class="cls-15" d="M871.9,452.67s6.93,5.44,2.14,16.94-8.27,16.12-3.66,21.38a1.18,1.18,0,0,1-.24,1.56c-.83.61-3.82,1.66-5.53,2.47s-7.87,9.08-11.63,11.65S841,507.21,834,500s-12.39-24.91-10-32S858.09,449.91,871.9,452.67Z" transform="translate(-660.71 -334.55)"/><path class="cls-22" d="M842.89,469.24s13.24,4.41,25-2.36,16.12-16.74,5.92-25.6-34.31-20.37-54.88-7.3-10.69,32.88-41.23,44.51c-16.12,6.13-28.72,10.32-36.9,18.16-44,42.23,41.36,104.19,71.23,47.82C831.65,507.41,809.21,477,842.89,469.24Z" transform="translate(-660.71 -334.55)"/><path class="cls-20" d="M1011.2,710.28s54.47,1.16,56.58-2.32v-4.65c0-1.86-2.49-4.53-9.26-6.27s-21.22-5.12-25.65-6.33-17.16-13.65-19-15.16-10.24,3.37-12,4.18-.6,2.79.3,5.11S1011.2,710.28,1011.2,710.28Z" transform="translate(-660.71 -334.55)"/><path class="cls-25" d="M1067.78,712.64H980.65c-1,0-1.88-.43-1.88-1v-2.76c0-.53.84-1,1.88-1h87.13c1,0,1.87.43,1.87,1v2.76C1069.65,712.21,1068.81,712.64,1067.78,712.64Z" transform="translate(-660.71 -334.55)"/><path class="cls-24" d="M1067.78,712.64h-29.61c-1,0-1.88-.43-1.88-1v-2.76c0-.53.84-1,1.88-1h29.61c1,0,1.88.43,1.88,1v2.76C1069.66,712.21,1068.81,712.64,1067.78,712.64Z" transform="translate(-660.71 -334.55)"/><path class="cls-19" d="M1029.25,692.22c-.3.81-3,4.88-1.12,5.86s7.9,4.53,11.28,4.53h19.49c8.95,0,6.88-2.41,6.88-2.41,1.4,1.1,2,2.2,2,3.11V708H980.65s-3.69-3.31-3.69-11.1-.49-12.25,1-13.5,2.48-.61,2.48-.61c6.78,4.53,15,1.27,19.26-.52l1.31-.58c3.48-1.61,5.61-3,8.7-1.69,3.46,1.51,15.65,8.19,17.61,9.24S1029.55,691.4,1029.25,692.22Z" transform="translate(-660.71 -334.55)"/><path class="cls-26" d="M1067.78,704.46V708H980.65s-3.69-3.31-3.69-11.1-.49-12.25,1-13.5a4.74,4.74,0,0,0,4.53,5.28h17.36c6.37,0,7.66,2.64,7.66,2.64s3.21,4.91,5.53,8.39,6.18,5.85,9,5.85h41.89A5.94,5.94,0,0,0,1067.78,704.46Z" transform="translate(-660.71 -334.55)"/><path class="cls-24" d="M1010.64,681.79a.8.8,0,0,1-1-.1.58.58,0,0,1,.29-.84l5.47-3.16.26-.57,1.18,1.1-.25.14-2.24,5a.92.92,0,0,1-1,.46.5.5,0,0,1-.42-.71l1.61-3.58-3.93,2.27Zm15.82,4.84-1.1-.88-1.56,3.48a.51.51,0,0,0,.43.71.93.93,0,0,0,1-.47l1.28-2.84Zm-1.15-.92-3.83,2.2a.8.8,0,0,1-1-.09.59.59,0,0,1,.29-.84l3.59-2.07,1,.8Zm-3.78-3.24c-.5-.43-1-.87-1.45-1.29l-4.74,2.73a.59.59,0,0,0-.29.84.8.8,0,0,0,1,.1l3.93-2.26-1.61,3.57a.49.49,0,0,0,.42.71.92.92,0,0,0,1-.46Z" transform="translate(-660.71 -334.55)"/><path class="cls-14" d="M944.64,558.08a.35.35,0,0,0-.7.08s.25,1.6.3,2.11a1.06,1.06,0,0,1-.24.8,1.37,1.37,0,0,1-.82.41,2.12,2.12,0,0,1-.52,0,5.69,5.69,0,0,1-2.51-.89,4.57,4.57,0,0,1-2-2.81,6,6,0,0,1-.1-2,.33.33,0,0,0-.32-.34.34.34,0,0,0-.39.28,6.89,6.89,0,0,0,.12,2.22,5.14,5.14,0,0,0,2.24,3.19,6.45,6.45,0,0,0,2.87,1,3.23,3.23,0,0,0,.72,0,2.09,2.09,0,0,0,1.25-.64,1.66,1.66,0,0,0,.38-1.24C944.9,559.74,944.64,558.08,944.64,558.08Z" transform="translate(-660.71 -334.55)"/><path class="cls-14" d="M938,558.84a.35.35,0,0,0,.43-.23.32.32,0,0,0-.26-.38,2.37,2.37,0,0,1-1.65-1.69.36.36,0,0,0-.43-.23.32.32,0,0,0-.26.38A3.06,3.06,0,0,0,938,558.84Z" transform="translate(-660.71 -334.55)"/><path class="cls-13" d="M939,563.72a.35.35,0,0,0,.36-.32.34.34,0,0,0-.35-.32l-7.88-.06a.34.34,0,0,0-.35.32.34.34,0,0,0,.35.32Z" transform="translate(-660.71 -334.55)"/><path class="cls-13" d="M934.11,563.07a.31.31,0,0,0-.2.41.37.37,0,0,0,.46.18,3.9,3.9,0,0,0,2.33-2.28.31.31,0,0,0-.24-.39.35.35,0,0,0-.44.21A3.15,3.15,0,0,1,934.11,563.07Z" transform="translate(-660.71 -334.55)"/><path class="cls-13" d="M953.55,570.23a.33.33,0,0,0,.33-.34.34.34,0,0,0-.38-.29l-8.49.58a.33.33,0,0,0-.32.35.34.34,0,0,0,.38.29Z" transform="translate(-660.71 -334.55)"/><path class="cls-13" d="M947.25,574.84a.31.31,0,0,0,.19-.42.37.37,0,0,0-.46-.17L942.2,576a.31.31,0,0,0-.2.41.38.38,0,0,0,.47.17Z" transform="translate(-660.71 -334.55)"/><path class="cls-13" d="M937.74,581.52a.33.33,0,0,0,.37-.3.33.33,0,0,0-.34-.33l-1.88-.07a.35.35,0,0,0-.37.3.33.33,0,0,0,.34.33Z" transform="translate(-660.71 -334.55)"/><path class="cls-22" d="M961.78,554l-.2-.19a.46.46,0,0,0-.6,0l-6.2,5.16a.34.34,0,0,0,0,.52l.2.2a.45.45,0,0,0,.59,0l6.21-5.16A.35.35,0,0,0,961.78,554Z" transform="translate(-660.71 -334.55)"/><path class="cls-12" d="M818.7,670.67a.4.4,0,0,0-.28.5.47.47,0,0,0,.57.25,25.47,25.47,0,0,0,3.74-1.51,33.45,33.45,0,0,0,3.78-2.23c15.69-10.69,78.87-55.79,79.78-56.44.6-.3,8.48-4.1,15.73.43,7.72,4.82,69.88,66.52,70.06,66.7a.48.48,0,0,0,.62,0,.37.37,0,0,0,0-.56c-.18-.18-62.4-62-70.21-66.83s-16.13-.73-16.68-.45l-.09.05c-.18.13-64,45.7-79.78,56.44a30.89,30.89,0,0,1-3.67,2.16A22.68,22.68,0,0,1,818.7,670.67Z" transform="translate(-660.71 -334.55)"/><path class="cls-12" d="M1004.91,670.23a.37.37,0,0,0,.13-.55.48.48,0,0,0-.62-.12s-15.21,8.91-19.3,15a.38.38,0,0,0,.15.55.48.48,0,0,0,.61-.14C989.86,679,1004.87,670.25,1004.91,670.23Z" transform="translate(-660.71 -334.55)"/><path class="cls-12" d="M918.93,635.51a.46.46,0,0,0,.58.21.38.38,0,0,0,.24-.52,23.58,23.58,0,0,1-2.24-9.3.42.42,0,0,0-.44-.4.43.43,0,0,0-.45.4A24.55,24.55,0,0,0,918.93,635.51Z" transform="translate(-660.71 -334.55)"/><path class="cls-21" d="M910.46,594.34a.44.44,0,0,0-.54-.29.4.4,0,0,0-.32.48s3.68,11.92-17.91,22.72c-11,5.49-22.23,9-32.34,12.18s-19,6-25.36,10c-6,3.78-11.47,5.42-16.34,5.32a20.12,20.12,0,0,1-13.68-5.9c-4-3.8-13.14-19.88-20.35-36.93-5.3-12.54-9.54-25.59-9.88-34.64a.43.43,0,0,0-.46-.38.43.43,0,0,0-.43.41c.35,9.14,4.61,22.28,9.94,34.89,7.25,17.14,16.48,33.34,20.54,37.19a21,21,0,0,0,14.3,6.15c5,.11,10.7-1.57,16.87-5.46s15.14-6.73,25.14-9.86,21.46-6.72,32.48-12.23c22.19-11.11,18.35-23.58,18.34-23.61Zm-83.77,6.25c.12-1.88,1.42-23.91-4.94-44.59a.4.4,0,0,1,.31-.49.46.46,0,0,1,.55.28c6,19.7,5.21,40.6,5,44.38a1.89,1.89,0,0,1,2.44,1.69c4.68-4.27,11.51-6.48,19.51-9.07,11.05-3.59,24.35-7.9,37.1-19.38,4.6-4.15,14.6.12,14.62.13a.38.38,0,0,1,.22.53.48.48,0,0,1-.59.19s-9.47-4-13.62-.29c-12.89,11.61-26.29,15.95-37.43,19.56-8.25,2.68-15.24,4.94-19.78,9.46a8.89,8.89,0,0,0-1.34,2.87.45.45,0,0,1-.53.3.4.4,0,0,1-.34-.47,10.08,10.08,0,0,1,1.4-3.05c-.17-2.16-1.57-1.69-1.86-1.57a6.88,6.88,0,0,0-1.41,2,.45.45,0,0,1-.54.28.4.4,0,0,1-.32-.49A7.42,7.42,0,0,1,826.69,600.59Z" transform="translate(-660.71 -334.55)"/><path class="cls-13" d="M853.23,481.71a4.76,4.76,0,0,1,3.44,6.13,5.57,5.57,0,0,1-6.85,3.07,4.75,4.75,0,0,1-3.43-6.12A5.58,5.58,0,0,1,853.23,481.71Z" transform="translate(-660.71 -334.55)"/><path class="cls-12" d="M861,473a6.42,6.42,0,0,1,5.33,1.65.93.93,0,0,0,1.2.1.71.71,0,0,0,.11-1.07,8.28,8.28,0,0,0-6.85-2.19.8.8,0,0,0-.74.85A.84.84,0,0,0,861,473Z" transform="translate(-660.71 -334.55)"/><path class="cls-12" d="M862.45,477.13h0a2.25,2.25,0,0,0-1.36,0,.77.77,0,0,1-.37-.51.31.31,0,0,0-.36-.24.29.29,0,0,0-.27.32,1.25,1.25,0,0,0,.41.72h0a1.41,1.41,0,0,1-.61-.68.32.32,0,0,0-.41-.17.27.27,0,0,0-.19.36,1.87,1.87,0,0,0,.67.83h0a2,2,0,0,1-.8-.54.35.35,0,0,0-.45-.05.27.27,0,0,0,0,.4,2.31,2.31,0,0,0,.81.61l.4.19-.81,2a1.77,1.77,0,0,0,1.23,2.29h0a2.06,2.06,0,0,0,2.55-1.09l.87-2.21A1.75,1.75,0,0,0,862.45,477.13Z" transform="translate(-660.71 -334.55)"/><path class="cls-22" d="M878.1,454.74a.41.41,0,0,0-.37-.45.44.44,0,0,0-.51.33c0,.07-4,24.27-33.53,14.95a.47.47,0,0,0-.57.24.39.39,0,0,0,.27.51C873.91,480,878.08,454.81,878.1,454.74Z" transform="translate(-660.71 -334.55)"/><path class="cls-15" d="M844.05,471.49c-.74-13.39-20.65-2.36-9.38,8.32C834.67,479.81,842.72,479.26,844.05,471.49Z" transform="translate(-660.71 -334.55)"/><path class="cls-13" d="M843.61,471.51a.43.43,0,0,0,.46.38.41.41,0,0,0,.42-.42c-.19-3.45-1.63-5.38-3.51-6.15a6.64,6.64,0,0,0-5.35.39,8.88,8.88,0,0,0-4.12,4.09c-1.36,2.85-1,6.6,2.84,10.28a.47.47,0,0,0,.62,0,.38.38,0,0,0,0-.57c-3.59-3.4-3.9-6.83-2.67-9.41a8,8,0,0,1,3.73-3.71,5.71,5.71,0,0,1,4.56-.37C842.21,466.7,843.44,468.4,843.61,471.51Z" transform="translate(-660.71 -334.55)"/><path class="cls-22" d="M808.42,446.49a.38.38,0,0,0-.24-.52.46.46,0,0,0-.58.21c0,.05-8.54,18.31-21.59,25.62a149.07,149.07,0,0,1-14.29,6.59c-10.69,4.49-21.32,9-24.26,15.82a.39.39,0,0,0,.26.51.45.45,0,0,0,.57-.23c2.81-6.56,13.28-11,23.81-15.39a146.13,146.13,0,0,0,14.37-6.63C799.77,465,808.39,446.54,808.42,446.49Z" transform="translate(-660.71 -334.55)"/><path class="cls-27" d="M876.87,444.55a20.27,20.27,0,0,0-3.09-3.27,51.74,51.74,0,0,0-7.62-5.41c-17.74,17.87-43.81,15.66-59.81,11.95-.5.93-1,1.86-1.42,2.8C849.73,465.6,869.28,453.11,876.87,444.55Z" transform="translate(-660.71 -334.55)"/><g class="cls-28"><path class="cls-29" d="M1103.32,439c-16.47-42.74-50-65.27-74.4-59-32.52,8.33-39.07,65.13-39.67,70.83-7.93,76.27,65.47,133,75.92,140.78,4.06-.57,98.21-15.25,121.38-85,11.19-33.65,8.24-87.37-19.65-97.38C1148.81,402.72,1123.8,415.93,1103.32,439Z" transform="translate(-660.71 -334.55)"/><path class="cls-30" d="M1094,478.58c-10.85-25.15-32.09-38.72-47.29-35.37-20.22,4.45-23.59,37.53-23.89,40.85-4,44.43,42.65,78.43,49.28,83.13,2.54-.29,61.23-7.68,74.83-48.08,6.56-19.5,4-50.9-13.54-57.09C1122,458,1106.51,465.39,1094,478.58Z" transform="translate(-660.71 -334.55)"/><path class="cls-24" d="M1073.27,488.45l-1.92.31h0a134.34,134.34,0,0,0-8.67,21.26l-1.37,5.4c-.36,1.46-.71,2.88-1,4.25l-.8,2.72s-8.85,27.2-8.91,28.18a14.86,14.86,0,0,0,1.06,3.72q-.37.84-.81,1.77c8.46,7.45,26.2,13,37.39,11.72.11-.67.23-1.31.34-1.91a14.83,14.83,0,0,0,3-2.45c.5-.84,7.47-28.63,7.47-28.63l.9-2.69c.5-1.31,1-2.67,1.57-4.09l2-5.21a135.75,135.75,0,0,0,5-22.42h0l-3.64-3.63-9-5.87a5.7,5.7,0,0,1-9-2.51h0Z" transform="translate(-660.71 -334.55)"/><path class="cls-31" d="M1073.27,488.45l-1.92.31h0s-.62,1.15-1.59,3.19c-.38,12.72-.5,23.92-.5,23.92l9.09-.53s2.37-18.52,2.64-19.57,5.47-3.62,5.47-3.62,5.9.25,6.42.56,2.68,7.91,2.25,8.66-7.5,14.15-8.55,16.14-12.15,33.85-12.4,34.48-9,6.46-9,6.46l-5.47,3.29c8.94,4.34,20.42,7,28.49,6,.11-.67.23-1.31.34-1.91a14.83,14.83,0,0,0,3-2.45c.5-.84,7.47-28.63,7.47-28.63l.9-2.69c.5-1.31,1-2.67,1.57-4.09l2-5.21a135.75,135.75,0,0,0,5-22.42h0l-3.64-3.63-9-5.87a5.7,5.7,0,0,1-9-2.51h0Z" transform="translate(-660.71 -334.55)"/><path class="cls-32" d="M1070.41,490.62c-.35.71-.78,1.61-1.28,2.69,9.95,2.92,25.41,7.1,39,9.18.2-1.34.29-2.1.29-2.1h0l-.94-.94a327.63,327.63,0,0,1-37-8.83Zm-3.11,6.83c10,2.95,26.14,7.37,40.06,9.46-.16.88-.35,1.83-.56,2.85-14.16-2.11-30.56-6.59-40.62-9.57.38-1,.76-1.88,1.12-2.74Zm-2.72,6.94c-.33.91-.66,1.83-1,2.79,10.08,3,27,7.65,41.5,9.78.26-1,.5-1.91.72-2.83-14.36-2.1-31.25-6.75-41.24-9.74Zm-2.27,7.08c10,3,27.07,7.72,41.58,9.83-.15.5-.3,1-.46,1.51l-.49,1.29c-14.47-2.14-31.31-6.77-41.35-9.77l.72-2.86Zm-1.8,7.23-.23,1-.55,1.86c9.91,3,26.3,7.45,40.54,9.62.35-.9.71-1.83,1.07-2.78-14.28-2.13-30.94-6.73-40.83-9.68Zm-2.14,7.12c9.76,2.91,26.24,7.47,40.47,9.65l-.71,2.82c-14.34-2.19-30.81-6.73-40.66-9.67.33-1,.64-2,.9-2.8Zm-2.28,7.07c-.3.92-.6,1.86-.9,2.81,9.86,2.94,26.61,7.58,41.12,9.78.25-1,.49-1.92.72-2.83-14.42-2.18-31.18-6.84-40.94-9.76Zm-2.27,7.08c9.76,2.93,26.79,7.68,41.38,9.87-.25.95-.49,1.9-.73,2.83-14.68-2.22-31.68-6.94-41.54-9.89.28-.9.58-1.84.89-2.81Zm-2.23,7.09c-.38,1.23-.68,2.21-.85,2.83,9.86,3,27,7.73,41.84,10,.23-.84.48-1.79.76-2.82-14.73-2.2-32-7-41.75-10Zm-.17,7.71c9.89,2.93,25.75,7.25,39.5,9.34a21.9,21.9,0,0,1-2.37,1.77c0,.26-.09.51-.14.78a320.68,320.68,0,0,1-34.17-8,32.87,32.87,0,0,1-3.42-2.59l.6-1.3Zm48.22-61.35-3.88-2.53a6.56,6.56,0,0,1-2.39,1.15c2.07.48,4.17.94,6.27,1.38Zm-11.18-2.56c-3.25-.81-6.4-1.64-9.32-2.44l7.62,0h0A5.36,5.36,0,0,0,1088.46,490.86Z" transform="translate(-660.71 -334.55)"/><path class="cls-33" d="M1070.41,490.62l-.65,1.34c0,.51,0,1,0,1.52,3.24.95,7,2,11.13,3.1.07-.41.12-.7.14-.8.11-.41,1-1,2-1.68-4.66-1.22-9-2.43-12.55-3.48Zm24.67,9.41c4.38,1,8.79,1.81,13,2.46.2-1.34.29-2.1.29-2.1h0l-.94-.94c-4.28-.69-8.72-1.59-13.1-2.57.3,1.14.58,2.29.72,3.15Zm-25.82,15.85,7.24-.42c-2.53-.66-5-1.32-7.21-2,0,1.52,0,2.38,0,2.38Zm9.6-4.45c.11-.9.24-1.89.38-2.94-3.52-.91-6.84-1.83-9.82-2.68,0,1.08,0,2.1-.05,3,2.9.83,6.11,1.7,9.49,2.58Zm1-7.43c.13-1,.27-2,.39-2.93-3.87-1-7.49-2-10.63-2.95,0,1,0,2.06-.07,3,3.09.89,6.58,1.87,10.31,2.84Zm13.73.31-1.42,2.68c4.92,1.09,9.92,2.06,14.66,2.77.21-1,.4-2,.56-2.85-4.46-.67-9.15-1.58-13.8-2.6Zm-3.6,6.8-1.41,2.68c5.54,1.26,11.21,2.39,16.55,3.17.26-1,.5-1.91.72-2.83-5.11-.75-10.54-1.82-15.86-3Zm-3.56,6.8c-.23.54-.59,1.5-1.07,2.76,5.87,1.36,11.93,2.59,17.61,3.43l.49-1.29c.16-.51.31-1,.46-1.51-5.63-.82-11.65-2-17.49-3.39Zm-2.63,7c-.31.88-.65,1.81-1,2.77,5.81,1.36,11.82,2.59,17.49,3.46.35-.9.71-1.83,1.07-2.78-5.67-.85-11.72-2.08-17.57-3.45Zm-2.52,7-1,2.77c5.91,1.39,12.06,2.67,17.86,3.55l.71-2.82c-5.69-.88-11.75-2.13-17.59-3.5Zm-2.49,7c-.34,1-.67,1.88-1,2.77,6.13,1.46,12.52,2.79,18.53,3.7.25-1,.49-1.92.72-2.83-5.91-.89-12.22-2.2-18.27-3.64Zm-2.49,7-1,2.77c6.33,1.51,13,2.9,19.17,3.84.24-.93.48-1.88.73-2.83-6.12-.92-12.67-2.29-18.93-3.78Zm-3.15,6.88c-.8.61-1.95,1.43-3.12,2.25,7.32,1.82,15.25,3.55,22.58,4.65.23-.84.48-1.79.76-2.82-6.54-1-13.57-2.47-20.22-4.08Zm-8.09,5.62-3.51,2.11c8.27,2.21,17.92,4.52,26.89,6,0-.27.09-.52.14-.78a21.9,21.9,0,0,0,2.37-1.77,259.35,259.35,0,0,1-25.89-5.55Zm34.61-65.14-3.88-2.53a6.56,6.56,0,0,1-2.39,1.15c2.07.48,4.17.94,6.27,1.38Zm-11.18-2.56a5.36,5.36,0,0,1-1.7-2.48h0l-7.62,0C1082.06,489.22,1085.21,490.05,1088.46,490.86Z" transform="translate(-660.71 -334.55)"/><path class="cls-34" d="M1100.91,494.25l-5.15-3.36a5.7,5.7,0,0,1-9-2.51h0l-5.82,0a3.84,3.84,0,0,0,.07,1.12c1.18,5.43,5,10,10.65,10a11.12,11.12,0,0,0,8.74-4.48A3.85,3.85,0,0,0,1100.91,494.25Z" transform="translate(-660.71 -334.55)"/><path class="cls-35" d="M1100.91,494.25l-5.15-3.36a5.7,5.7,0,0,1-9-2.51h0l-5.82,0a3.84,3.84,0,0,0,.07,1.12,15.34,15.34,0,0,0,1.82,4.65c1.59-1,3.63-2,3.63-2s5.9.25,6.42.56c.35.2,1.47,3.83,2,6.34a11.88,11.88,0,0,0,5.51-4A3.85,3.85,0,0,0,1100.91,494.25Z" transform="translate(-660.71 -334.55)"/><path class="cls-34" d="M1071.35,488.76c-8.29,2.54-11.43,2.16-15.88,11.68-2.16,4.64-9.69,24.77-10.92,27.9s-13.14,27.89-13.14,27.89a1,1,0,0,0,.18.89c.36.52,5.07,1.6,8.1,3.45a1.07,1.07,0,0,0,1.21-.61c.44-.82,9.52-18.32,12.65-24.83s9.71-20,9.71-20Z" transform="translate(-660.71 -334.55)"/><path class="cls-36" d="M1071.35,488.76c-5.43,1.67-8.65,2.07-11.48,4.84a7.49,7.49,0,0,1,2.25,6.94c-1.39,6.13-4.79,18.05-5.57,20.06s-2.12,1-3,1.2,1.66.87,1.86,1.53-13.21,27.94-14.53,29.93c-1,1.55-4.54,1.63-8.34.66l-1.11,2.31a1,1,0,0,0,.18.89c.36.52,5.07,1.6,8.1,3.45a1.07,1.07,0,0,0,1.21-.61c.44-.82,9.52-18.32,12.65-24.83s9.71-20,9.71-20Z" transform="translate(-660.71 -334.55)"/><path class="cls-34" d="M1108.4,500.39s3,3.16,3.89,5.14,1.1,9.77-.46,23.67-2.74,17.81-7.56,34l-2.74,9.41s-.31.52-.61.56c0,0-4.39-2.79-8.11-2a1.29,1.29,0,0,1-.8-.83c-.16-.63,6.53-30.33,6.59-31.68S1103.84,508.51,1108.4,500.39Z" transform="translate(-660.71 -334.55)"/><path class="cls-36" d="M1108.4,500.39s3,3.16,3.89,5.14a15.59,15.59,0,0,1,.65,4.77,7.42,7.42,0,0,0-2.62,2.11c-1.66,2.62-7.65,19.31-8,20.92s1.32,2,1.85,2.49-.09-.31-1.58.87-6,27.3-6.22,29c-.12,1,3.09,2.56,6.06,3.84l-.89,3s-.31.52-.61.56c0,0-4.39-2.79-8.11-2a1.29,1.29,0,0,1-.8-.83c-.16-.63,6.53-30.33,6.59-31.68S1103.84,508.51,1108.4,500.39Z" transform="translate(-660.71 -334.55)"/><path class="cls-36" d="M1099,491s.94,4,.69,5.08-8.9,16-10.39,18.91-13.37,36.56-13.37,36.56a25,25,0,0,0-.67,2.92c-.37,2-2.17,13.78-2.23,14.69a2.27,2.27,0,0,0,1.2,2.18c.71.29,14.55,2,16.52,1.46,0,0,1.74-.39,2.35-3.09s6.37-34.34,6.54-35.24,7.87-19.13,8.79-34.09Z" transform="translate(-660.71 -334.55)"/><path class="cls-35" d="M1099,491s.94,4,.69,5.08-8.9,16-10.39,18.91c-.76,1.47-4.2,10.89-7.4,19.79,3.08-4.81,8.94-13.93,10-15.12,1.46-1.65,11.92-7.91,12.39-7.65a14.55,14.55,0,0,1,1.64,3,81.32,81.32,0,0,0,2.49-14.65L1099,491Zm-25.28,73.27a7.12,7.12,0,0,0,3.21,3.66c3.77,1.52,12.22-5.74,14.42-8.69s6-20.29,6.06-21.07-1.92-1.17-2.37-1.64,4.25-1.28,6.14-6.27c-.88,2.42-1.49,4-1.54,4.21-.17.9-5.93,32.55-6.54,35.24s-2.35,3.09-2.35,3.09c-2,.52-15.81-1.17-16.52-1.46a2.27,2.27,0,0,1-1.2-2.18C1073,568.81,1073.32,566.76,1073.69,564.28Z" transform="translate(-660.71 -334.55)"/><path class="cls-36" d="M1081.28,487.14s-2.34,3.66-2.66,4.47-.17,18.4-.27,23.74-7.17,33.93-7.56,35.53-4.27,14.15-4.54,14.85a2.08,2.08,0,0,1-2.08,1.17c-.82-.15-15.71-6-16.45-6.35a4.46,4.46,0,0,1-1.7-4.95c.74-2.64,12.52-29.7,13.56-33.54s2.94-14.34,5.64-21.08a85.15,85.15,0,0,1,6.13-12.22Z" transform="translate(-660.71 -334.55)"/><path class="cls-35" d="M1081.28,487.14s-2.34,3.66-2.66,4.47-.17,18.4-.27,23.74a55.9,55.9,0,0,1-1.17,7.63c-.27-2-.92-6.73-.91-7.58,0-1.07-5-13.21-5.26-13.58a8.08,8.08,0,0,0-3.19-1.55c-1.87-.61-3.56,3.38-3.61,3.51.32-1,.66-1.92,1-2.8a85.15,85.15,0,0,1,6.13-12.22l9.93-1.62Zm-13.36,73.3a3,3,0,0,1-2.89,1.15c-5-1.32-11.48-11.24-12.22-13.65s4.68-14.31,5.37-16.06a9.26,9.26,0,0,1,3-3.8c.89-.65-1.22-7.26.14-12.65a1,1,0,0,0,0-.69c-.7,3.08-1.27,5.75-1.7,7.32-1,3.84-12.82,30.9-13.56,33.54a4.46,4.46,0,0,0,1.7,4.95c.74.36,15.63,6.2,16.45,6.35a2.08,2.08,0,0,0,2.08-1.17C1066.36,565.44,1067.08,563.15,1067.92,560.44Z" transform="translate(-660.71 -334.55)"/><path class="cls-37" d="M1085.91,488.39s-1.83-2.65-2.49-2.92a18.4,18.4,0,0,0-6.44.47c-1.57.56-10.85,10.39-11.36,11.25s-.14,1,.08,1.17,4.73,1.28,6.37,1.88c0,0,.44.08.67.77s4.56,13,4.63,14.42-.22,7.7-.22,7.7,1.18-4.78,1.36-6.36a31.07,31.07,0,0,0,.1-3.78c0-.84.21-21.25.21-21.25a.63.63,0,0,1,.08-.28c.08-.15,1-2.12,1-2.12Z" transform="translate(-660.71 -334.55)"/><path class="cls-38" d="M1085.91,488.39s2.1-1.91,1.66-2.09a9,9,0,0,0-4.89-.81c-6.23,1-3.9,1.32-7.26,8.72-1.6,3.53-2.62,3.37-9.43,2.39-.19.29-.31.5-.37.59-.51.85-.14,1,.08,1.17s4.73,1.28,6.37,1.88c0,0,.44.08.67.76.66-.64,1.67-1.51,2.14-1.38.73.2,2.27,1,2.37,3.7.23,6.43.16,13.34-.1,19.81,0,0,1.18-4.78,1.36-6.36a31.07,31.07,0,0,0,.1-3.78c0-.84.21-21.25.21-21.25a.63.63,0,0,1,.08-.28c.08-.15,1-2.12,1-2.12Z" transform="translate(-660.71 -334.55)"/><path class="cls-37" d="M1097.26,489.54a37.48,37.48,0,0,1,4.19,2.95c.74.8,7.67,13.64,8.12,15.64,0,0,.32,1.66-1,1.49s-3.5-.79-4.21-.79-10.93,7.3-13.12,9.29-9,15.7-9,15.7l6.77-18.69c.22-.6,2.4-4.54,4.51-8.29s5.76-10.3,5.92-10.73-1.2-3.17-1.2-3.17l-1.55-1.51Z" transform="translate(-660.71 -334.55)"/><path class="cls-38" d="M1097.26,489.54s1,.61,2,1.3a1.71,1.71,0,0,0,0,1.58c5.21,6.18-2,7.37.29,10.17.65.79,5.36,4.78,7.89,5.4,1.09.27,1.64,0,1.91-.49a3.51,3.51,0,0,1,.21.63s.32,1.66-1,1.49-3.5-.79-4.21-.79a1.53,1.53,0,0,0-.41.16c-2.72-1.4-7.58-3.79-8.09-3.18-.72.86-4.83,7.71-5.11,9-.56,2.58-7.22,16.34-8.56,19l6.77-18.69c.22-.6,2.4-4.54,4.51-8.29s5.76-10.3,5.92-10.73-1.2-3.17-1.2-3.17l-1.55-1.51Z" transform="translate(-660.71 -334.55)"/><path class="cls-39" d="M1101.41,476.85l-1.41,3.93-2.94,9.41a3.65,3.65,0,0,0,.76,2.68c-4.15,5.26-11.73,3.93-13.51-4.24a3.56,3.56,0,0,0,2.15-1.76l2.94-9.41,1.09-4s2.52,1.36,5.07,2.95C1098.56,476.52,1101.41,476.85,1101.41,476.85Z" transform="translate(-660.71 -334.55)"/><path class="cls-39" d="M1083.85,466.14l-.27,0h0a3.77,3.77,0,0,0-3.68,2.83,3.59,3.59,0,1,0,6.91,1.92,3.87,3.87,0,0,0-.53-3.27c-.19,1.11-.71,2.41-2,2.21l.59-2.11A1.25,1.25,0,0,0,1083.85,466.14Z" transform="translate(-660.71 -334.55)"/><path class="cls-39" d="M1108.9,472.55l.24.11h0a3.84,3.84,0,0,1-2.56,7.12,3.66,3.66,0,0,1-2.59-4.52,4,4,0,0,1,2-2.61c-.37,1.07-.56,2.46.72,2.93l.51-2.14A1.28,1.28,0,0,1,1108.9,472.55Z" transform="translate(-660.71 -334.55)"/><path class="cls-40" d="M1101.19,450.94h0c-6.54-1.67-13.37,2.63-15.18,9.57L1083,472c-1.82,6.94,2,14,8.58,15.66h0c6.54,1.67,13.37-2.63,15.18-9.57l3-11.47C1111.59,459.66,1107.72,452.62,1101.19,450.94Z" transform="translate(-660.71 -334.55)"/><path class="cls-41" d="M1087,457.83a15.78,15.78,0,0,0-.65,1.52l1,2.24s.44-1.28,3.29-.9a93.92,93.92,0,0,1,11.68,2.81c1.88.67,2.35,1.78,1.75,4.25s-1.4,6.95.92,8c0,0-2.37,14.81-15.48,11.17a11.13,11.13,0,0,0,2,.74h0c6.54,1.67,13.37-2.63,15.18-9.57l3-11.47a13.45,13.45,0,0,0-.38-8.09,20.36,20.36,0,0,0-7.77-2.91C1095.66,455,1089.5,456.93,1087,457.83Z" transform="translate(-660.71 -334.55)"/><path class="cls-35" d="M1088.81,476.82a3.18,3.18,0,1,0,6.08,1.83h0a.57.57,0,0,0-.36-.72l-5-1.51a.56.56,0,0,0-.69.4Z" transform="translate(-660.71 -334.55)"/><path class="cls-42" d="M1089.19,479.67a3,3,0,0,0,3.44,1.29,2.07,2.07,0,0,0-3.44-1.29Z" transform="translate(-660.71 -334.55)"/><path class="cls-24" d="M1094.59,478l-4.71-1.42a1.22,1.22,0,0,0,.14,1.39c.38.28,3.83,1.21,4.15,1A2.16,2.16,0,0,0,1094.59,478Z" transform="translate(-660.71 -334.55)"/><path class="cls-39" d="M1098.6,476.56a1.72,1.72,0,1,0,1.09,2.08A1.67,1.67,0,0,0,1098.6,476.56Z" transform="translate(-660.71 -334.55)"/><path class="cls-39" d="M1086,472.81a1.72,1.72,0,1,0,1.09,2.08A1.66,1.66,0,0,0,1086,472.81Z" transform="translate(-660.71 -334.55)"/><path class="cls-35" d="M1086.85,466.76a.42.42,0,0,1-.51-.34.49.49,0,0,1,.34-.56,3.88,3.88,0,0,1,3.71,1,.48.48,0,0,1,0,.65.42.42,0,0,1-.62,0A3.06,3.06,0,0,0,1086.85,466.76Z" transform="translate(-660.71 -334.55)"/><path class="cls-35" d="M1101.28,470.68a3,3,0,0,0-2.9-.76.42.42,0,0,1-.54-.3.5.5,0,0,1,.31-.58,3.87,3.87,0,0,1,3.71.94.48.48,0,0,1,0,.65A.43.43,0,0,1,1101.28,470.68Z" transform="translate(-660.71 -334.55)"/><path class="cls-35" d="M1099.59,471.86h0a1.08,1.08,0,0,1,.74,1.35l-.37,1.42a1.1,1.1,0,0,1-1.31.83h0a1.1,1.1,0,0,1-.74-1.35l.37-1.42A1.1,1.1,0,0,1,1099.59,471.86Z" transform="translate(-660.71 -334.55)"/><path class="cls-35" d="M1087.75,468.6h0a1.11,1.11,0,0,0-1.31.83l-.37,1.42a1.08,1.08,0,0,0,.74,1.35h0a1.11,1.11,0,0,0,1.31-.83l.37-1.42A1.09,1.09,0,0,0,1087.75,468.6Z" transform="translate(-660.71 -334.55)"/><path class="cls-43" d="M1092.44,457.68c-1.28-.33-3.92-.32-4.63,2.39a34.49,34.49,0,0,1-4.25,9.79,6.64,6.64,0,0,0,.2-3.75l1.67-6.41a12.21,12.21,0,0,1,7-8.63,14.09,14.09,0,0,1,16.25,4.17,12,12,0,0,1,1.94,10.92l-1.67,6.42a6.62,6.62,0,0,0-1.67,3.37c-1.06-.27-.85-1.5-.54-2.69s.55-2.13.55-2.13c-1.63-.41-1.55-2.69-.84-5.4s-1.6-4-2.88-4.32C1100.39,460.58,1095.67,458.51,1092.44,457.68Z" transform="translate(-660.71 -334.55)"/><path class="cls-35" d="M1088.41,458.76c-2.23-2.4-.88-6.52,1.12-8.84.87-1,1.71.64,1.71.64s2.69-4.35,7.35-4.2,4.84,2.88,4.84,2.88,2.15-1.2,3.39-.38a3.43,3.43,0,0,1,1.16,2.74s2.24-.27,2.84.83.18,4,.18,4,1.2-.64,1.89-.22,0,7.92-6.54,7.28h0a4.19,4.19,0,0,0-2.73-2.07l-11.93-3.07c-2-.52-2.21-.28-3.28.42Z" transform="translate(-660.71 -334.55)"/><path class="cls-44" d="M1092.1,449.45a10.32,10.32,0,0,1,1.91-1.69,9,9,0,0,0,6,5.68c3.52,1.18,7.21.08,10.24-1.53a1.32,1.32,0,0,1,.55.52c.61,1.1.18,4,.18,4s1.2-.64,1.89-.22c.23.15.31,1.11,0,2.29C1103.72,459.16,1093.76,458.68,1092.1,449.45Z" transform="translate(-660.71 -334.55)"/><path class="cls-45" d="M1093.3,473.21s-1.25.31-1.55.79a.84.84,0,0,0,.43,1.2C1092.62,475.41,1094,473,1093.3,473.21Z" transform="translate(-660.71 -334.55)"/><path class="cls-46" d="M1065.9,510.31l7.35,1.5a.37.37,0,0,1,.27.44l-.08.37a.37.37,0,0,1-.43.3l-7.35-1.5a.37.37,0,0,1-.27-.44l.08-.37A.37.37,0,0,1,1065.9,510.31Z" transform="translate(-660.71 -334.55)"/><path class="cls-30" d="M1102.05,445.45c-13.87-38.4-42.75-58.4-64-52.5-28.34,7.84-34.63,59.17-35.2,64.32-7.68,68.9,55.52,119.32,64.51,126.28,3.54-.56,85.51-14.75,106.36-77.89,10.07-30.48,8.06-78.93-16.07-87.69C1142,412.29,1120.09,424.46,1102.05,445.45Z" transform="translate(-660.71 -334.55)"/><path class="cls-47" d="M1103.45,440.22c-16.47-42.73-50-65.26-74.4-59-32.51,8.33-39.07,65.14-39.66,70.84-7.93,76.27,65.47,133,75.91,140.77,4.06-.57,98.22-15.24,121.39-85,11.18-33.65,8.23-87.38-19.65-97.39C1148.94,404,1123.94,417.19,1103.45,440.22Z" transform="translate(-660.71 -334.55)"/></g><path class="cls-48" d="M1103.53,439.7c-16.47-42.74-50-65.27-74.4-59-32.52,8.32-39.07,65.13-39.67,70.83-7.93,76.27,65.47,133,75.91,140.78,4.07-.58,98.22-15.25,121.39-85,11.18-33.65,8.24-87.37-19.65-97.38C1149,403.46,1124,416.66,1103.53,439.7Z" transform="translate(-660.71 -334.55)"/><path class="cls-49" d="M920,514.25c-1.91-8.61-7.69-14-12.57-13.7-6.5.42-9.43,10.87-9.72,11.92-3.77,14.06,8.68,27.29,10.46,29.13.79,0,19.33.58,25.84-11.71,3.14-5.94,4.16-16.14-.91-19C929.85,509,924.65,510.64,920,514.25Z" transform="translate(-660.71 -334.55)"/><path class="cls-49" d="M946,456.14c-10.63-9.84-23.26-11.63-29.31-6.51-8.05,6.82-2,23.8-1.36,25.5,8.39,22.68,37.09,28.67,41.14,29.46,1.07-.73,25.7-17.79,22.54-40.71-1.52-11.06-9.85-25.87-19.15-24.88C953.86,439.64,948.62,446.81,946,456.14Z" transform="translate(-660.71 -334.55)"/><path class="cls-29" d="M1195.92,742.13v-.43c0-2.82-2.66-5.12-5.9-5.12s-5.89,2.3-5.89,5.12v.43a5.28,5.28,0,0,0,4,4.87h3.68A5.28,5.28,0,0,0,1195.92,742.13Z" transform="translate(-660.71 -334.55)"/><path class="cls-29" d="M1174.58,741.92a5.61,5.61,0,0,0-5.82-5.34h-8.14a4.49,4.49,0,0,1-4.66-4.28h0a4.49,4.49,0,0,1,4.66-4.27h27c4.61,0,8.38-3.46,8.38-7.7s-3.77-7.69-8.38-7.69H739.75c-4.61,0-8.38,3.46-8.38,7.69s3.77,7.7,8.38,7.7H768a4.48,4.48,0,0,1,4.65,4.27h0a4.49,4.49,0,0,1-4.65,4.28H757.68a5.61,5.61,0,0,0-5.82,5.34,5.44,5.44,0,0,0,4,5.08h414.65A5.43,5.43,0,0,0,1174.58,741.92Z" transform="translate(-660.71 -334.55)"/></svg>