<?xml version="1.0" encoding="utf-8"?>
<!-- Generator: Adobe Illustrator 23.0.2, SVG Export Plug-In . SVG Version: 6.00 Build 0)  -->
<svg version="1.1" id="Layer_1" xmlns="http://www.w3.org/2000/svg" xmlns:xlink="http://www.w3.org/1999/xlink" x="0px" y="0px"
	 viewBox="0 0 48 48" style="enable-background:new 0 0 48 48;" xml:space="preserve">
<style type="text/css">
	.st0{fill:#FFFFFF;}
</style>
<path class="st0" d="M24,4C13,4,4,13,4,24s9,20,20,20s20-9,20-20S35,4,24,4z M24,8c8.9,0,16,7.1,16,16c0,8-5.9,14.6-13.6,15.8v-11
	h4.7l0.7-4.7h-5.4v-2.6c0-2,0.6-3.7,2.5-3.7h3v-4.1c-0.5-0.1-1.6-0.2-3.7-0.2c-4.3,0-6.9,2.3-6.9,7.5V24h-4.5v4.7h4.5v11
	C13.7,38.5,8,31.9,8,24C8,15.1,15.1,8,24,8z"/>
</svg>
