<svg xmlns="http://www.w3.org/2000/svg" viewBox="0 0 128.245 133.689"><defs><style>.cls-1{fill:#f67280;}.cls-1,.cls-2{fill-rule:evenodd;}.cls-2{fill:#fff;opacity:0.29;}</style></defs><title>Asset 2</title><g id="Layer_2" data-name="Layer 2"><g id="Layer_1-2" data-name="Layer 1"><path class="cls-1" d="M72.088,37.749C61.735,10.88,40.671-3.285,25.313.648,4.87,5.884.749,41.6.376,45.182-4.612,93.134,41.537,128.77,48.1,133.689c2.555-.361,61.75-9.587,76.316-53.413C131.45,59.12,129.6,25.343,112.066,19.05,100.688,14.965,84.968,23.267,72.088,37.749Z"/><path class="cls-2" d="M68.74,59.517C61.92,43.7,48.564,35.172,39.01,37.276c-12.718,2.8-14.836,23.6-15.023,25.685-2.5,27.929,26.815,49.307,30.984,52.261,1.594-.179,38.495-4.826,47.042-30.227,4.126-12.262,2.533-32-8.512-35.9C86.333,46.574,76.608,51.224,68.74,59.517Z"/></g></g></svg>